<?xml version="1.0" encoding="UTF-8"?> <svg xmlns="http://www.w3.org/2000/svg" width="69" height="63" viewBox="0 0 69 63" fill="none"><path d="M51.4345 33.6653L56.0254 29.0744C57.1437 27.9562 57.7323 26.4847 57.7323 24.8956C57.7323 23.3064 57.1437 21.835 56.0254 20.7167L39.0156 3.70687C37.8973 2.58857 36.4259 2 34.8367 2C33.2476 2 31.7761 2.58857 30.6578 3.70687L13.7069 20.6578C12.5886 21.7761 12 23.2476 12 24.8367C12 26.4259 12.5886 27.8973 13.7069 29.0156L18.2978 33.6065L12.824 56.9729C12.7063 57.4438 12.8829 57.9735 13.2949 58.2678C13.7069 58.5621 14.2366 58.5621 14.6486 58.3266L22.6532 53.3237L27.5384 61.2106C27.7738 61.5638 28.1858 61.7992 28.5978 61.7992C28.6567 61.7992 28.7155 61.7992 28.7744 61.7992C29.2452 61.7404 29.6573 61.3284 29.775 60.8575L32.8944 47.438C33.483 47.6146 34.1304 47.7323 34.719 47.7323C35.3664 47.7323 35.955 47.6146 36.5436 47.438L39.663 60.8575C39.7807 61.3284 40.1927 61.7404 40.6636 61.7992C40.7225 61.7992 40.7813 61.7992 40.8402 61.7992C41.2522 61.7992 41.6642 61.5638 41.8996 61.2106L46.7848 53.3237L54.7894 58.3266C55.2014 58.6209 55.7311 58.5621 56.1431 58.2678C56.5551 57.9735 56.7317 57.4438 56.614 56.9729L51.4345 33.6653ZM28.539 59.5038L23.9481 52.1466C23.7126 51.7934 23.3006 51.558 22.8886 51.558C22.6532 51.558 22.4178 51.6169 22.2412 51.7346L14.7663 56.3843L19.7692 35.0191L30.7167 46.0254C30.9521 46.2608 31.2464 46.4963 31.5407 46.6728L28.539 59.5038ZM37.8384 44.9071C37.4264 45.3191 36.8967 45.6723 36.367 45.8488C35.4253 46.202 34.3659 46.202 33.4241 45.8488C32.8944 45.6723 32.3647 45.3191 31.9527 44.9071C31.9527 44.9071 31.8938 44.9071 31.8938 44.8483L20.1812 33.1356L18.8275 31.7819L14.884 27.8384C13.236 26.1904 13.236 23.483 14.884 21.835L31.8938 4.82516C32.7178 4.00115 33.8361 3.58915 34.8956 3.58915C36.0139 3.58915 37.0733 4.00115 37.8973 4.82516L54.9071 21.835C56.5551 23.483 56.5551 26.1904 54.9071 27.8384L50.9637 31.7819L49.6099 33.1356L37.8384 44.9071C37.8973 44.8483 37.8973 44.8483 37.8384 44.9071ZM47.5499 51.7346C47.2556 51.558 46.9614 51.4992 46.6082 51.558C46.3139 51.6169 46.0196 51.8523 45.8431 52.0877L41.2522 59.4449L38.2504 46.614C38.5447 46.4374 38.7802 46.202 39.0745 45.9666L50.0219 35.0191L55.0248 56.3843L47.5499 51.7346Z" fill="#00AEEF"></path><path d="M43.0766 18.6563L32.4234 29.3095L26.7731 23.6592C26.4199 23.306 25.8902 23.306 25.5959 23.6592C25.2428 24.0123 25.2428 24.542 25.5959 24.8363L31.8348 31.0752C32.0114 31.2518 32.188 31.3106 32.4234 31.3106C32.6588 31.3106 32.8354 31.2518 33.012 31.0752L44.2537 19.8334C44.6069 19.4803 44.6069 18.9506 44.2537 18.6563C43.9595 18.362 43.4297 18.362 43.0766 18.6563Z" fill="#00AEEF"></path></svg> 