<?xml version="1.0" encoding="UTF-8"?> <svg xmlns="http://www.w3.org/2000/svg" width="136" height="135" viewBox="0 0 136 135" fill="none"><path d="M68.125 133.225C64.025 133.225 59.925 131.625 56.725 128.525L40.025 111.825L37.925 109.725L26.325 98.125L23.025 94.825L7.725 79.525C1.425 73.225 1.425 63.025 7.725 56.725L13.525 50.925L16.125 48.325L56.725 7.725C63.025 1.425 73.225 1.425 79.525 7.725L127.825 56.025L128.425 56.625C128.925 57.125 129.325 57.625 129.725 58.125C130.925 59.725 131.825 61.425 132.325 63.225C132.625 64.225 132.825 65.225 132.925 66.225C133.425 70.925 131.925 75.825 128.325 79.425L102.825 104.925L100.225 107.525L79.425 128.325C76.325 131.625 72.225 133.225 68.125 133.225Z" stroke="#2BACE2" stroke-width="3" stroke-miterlimit="10"></path><path d="M36.9248 55.4258C38.8578 55.4258 40.4248 53.8588 40.4248 51.9258C40.4248 49.9928 38.8578 48.4258 36.9248 48.4258C34.9918 48.4258 33.4248 49.9928 33.4248 51.9258C33.4248 53.8588 34.9918 55.4258 36.9248 55.4258Z" fill="#2BACE2"></path><path d="M30.6252 63.0253C30.2252 63.6253 30.0252 64.3253 29.8252 65.0253C29.6252 65.8253 29.4252 66.7253 29.2252 67.5253C29.0252 68.2253 28.8252 69.0253 28.3252 69.5253C27.8252 70.0253 27.0252 70.1253 26.4252 69.8253C25.8252 69.5253 25.3252 68.9253 25.3252 68.2253C25.3252 67.8253 25.4252 67.3253 25.5252 66.9253C25.9252 65.6253 26.3252 64.4253 26.7252 63.1253C27.0252 62.0253 27.2252 61.0253 28.0252 60.2253C28.5252 59.7253 29.2252 59.4253 29.8252 59.0253C30.8252 58.5253 31.8252 58.0253 32.8252 57.4253C34.0252 56.8253 35.5252 56.1253 36.7252 56.7253C37.6252 57.1253 38.1252 58.1253 38.2252 59.1253C38.3252 60.1253 38.1252 61.1253 37.9252 62.1253C37.5252 64.3253 37.2252 66.5253 37.0252 68.7253C37.0252 69.1253 36.9252 69.5253 37.1252 69.9253C37.2252 70.2253 37.5252 70.5253 37.7252 70.7253C38.9252 71.9253 40.6252 72.6253 41.3252 74.1253C41.7252 74.9253 41.8252 75.9253 41.8252 76.8253C41.9252 78.6253 42.0252 80.5253 42.2252 82.3253C42.3252 83.3253 42.3252 84.5253 41.7252 85.3253C41.2252 85.9253 40.3252 86.2253 39.5252 86.0253C38.2252 85.6253 37.8252 84.3253 37.7252 83.0253C37.6252 81.0253 37.4252 78.9253 37.3252 76.9253C37.3252 76.7253 37.3252 76.4253 37.2252 76.2253C37.1252 76.0253 36.9252 75.9253 36.8252 75.7253C35.3252 74.3253 33.8252 73.0253 32.2252 71.6253C31.8252 71.3253 31.4252 70.9253 31.3252 70.4253C31.2252 70.0253 31.2252 69.6253 31.2252 69.2253C31.4252 66.8253 31.7252 64.5253 31.9252 62.1253C31.3252 62.2253 30.9252 62.5253 30.6252 63.0253Z" fill="#2BACE2"></path><path d="M39.0254 61.625C39.2254 61.725 39.5254 61.925 39.7254 62.125C39.9254 62.325 40.2254 62.425 40.4254 62.625C40.9254 63.025 41.3254 63.325 41.8254 63.725C42.7254 64.425 43.7254 65.125 44.6254 65.825C44.8254 66.025 45.0254 66.125 45.1254 66.325C45.2254 66.525 45.3254 66.825 45.3254 67.125C45.3254 67.425 45.3254 67.825 45.2254 68.125C45.1254 68.425 44.9254 68.625 44.7254 68.725C44.2254 69.125 43.6254 69.325 43.1254 69.125C42.8254 69.025 42.6254 68.825 42.3254 68.725C41.0254 67.825 39.7254 66.825 38.5254 65.925C38.6254 65.225 38.7254 64.525 38.8254 63.725C38.8254 63.325 38.9254 63.025 38.9254 62.625C38.9254 62.325 38.9254 61.925 39.0254 61.625Z" fill="#2BACE2"></path><path d="M30.9252 72.125L34.6252 75.425C33.8252 77.825 33.0252 80.225 32.2252 82.525C32.0252 83.225 31.7252 83.925 31.5252 84.725C31.2252 85.725 30.0252 86.325 28.9252 86.125C28.7252 86.125 28.6252 86.025 28.4252 85.925C28.2252 85.825 28.0252 85.625 27.8252 85.525C26.6252 84.225 27.4252 82.725 27.9252 81.325C28.4252 79.725 28.9252 78.125 29.4252 76.425C30.0252 74.925 30.4252 73.525 30.9252 72.125Z" fill="#2BACE2"></path><path d="M85.8248 56.0258C86.3248 56.8258 86.9248 57.6258 87.1248 58.5258C87.3248 59.5258 87.4248 60.5258 87.4248 61.5258C87.4248 64.8258 87.5248 68.0258 87.5248 71.3258C87.5248 71.5258 87.3248 71.7258 87.1248 71.7258H82.9248C82.7248 71.7258 82.4248 71.5258 82.4248 71.2258V69.3258C82.4248 69.1258 82.2248 68.9258 82.0248 68.9258H60.6248C60.4248 68.9258 60.2248 69.1258 60.2248 69.3258V71.3258C60.2248 71.5258 60.0248 71.7258 59.8248 71.7258H55.6248C55.3248 71.7258 55.1248 71.5258 55.1248 71.2258C55.2248 68.1258 55.2248 65.0258 55.2248 61.9258C55.2248 61.0258 55.2248 60.1258 55.4248 59.2258C55.6248 58.0258 56.3248 57.1258 56.8248 56.0258C56.1248 55.8258 55.0248 55.7258 54.7248 55.0258C54.5248 54.6258 54.6248 54.2258 54.7248 53.8258C54.8248 53.5258 55.0248 53.2258 55.2248 53.1258C55.7248 52.7258 56.6248 52.9258 57.2248 52.9258H58.7248C60.0248 50.9258 61.1248 48.3258 63.4248 47.4258C64.8248 46.8258 66.7248 47.1258 68.2248 47.1258H74.3248C75.8248 47.1258 77.6248 46.8258 79.0248 47.4258C79.6248 47.6258 80.1248 47.9258 80.6248 48.3258C81.4248 49.0258 82.0248 50.2258 82.6248 51.2258L83.7248 52.9258C83.8248 53.0258 85.1248 52.9258 85.2248 52.9258C85.8248 52.9258 86.8248 52.7258 87.3248 53.1258C87.4248 53.2258 87.5248 53.4258 87.6248 53.5258C87.9248 54.0258 87.9248 54.7258 87.6248 55.2258C87.6248 55.4258 85.8248 56.2258 85.8248 56.0258Z" fill="#2BACE2"></path><path d="M59.325 59.225C59.725 59.325 60.025 59.425 60.425 59.525C60.925 59.725 61.525 59.925 62.025 60.125C62.425 60.325 62.925 60.425 63.225 60.825C63.525 61.325 63.425 61.925 63.125 62.325C63.025 62.425 62.825 62.525 62.725 62.625C62.625 62.625 62.525 62.725 62.425 62.725C62.325 62.725 62.325 62.725 62.225 62.725C61.125 62.725 59.925 62.725 58.825 62.725C58.725 62.725 58.525 62.725 58.425 62.725C58.225 62.625 58.025 62.525 57.825 62.325C57.225 61.625 57.025 60.625 57.625 59.825C57.825 59.525 58.225 59.225 58.525 59.125C58.725 59.225 59.025 59.225 59.325 59.225Z" fill="#284F6F"></path><path d="M83.325 59.225C83.125 59.225 82.825 59.325 82.625 59.425C82.025 59.625 81.525 59.825 80.925 60.025C80.425 60.225 79.925 60.425 79.525 60.725C79.325 60.925 79.225 61.025 79.125 61.325C79.125 61.625 79.125 61.925 79.325 62.125C79.525 62.425 79.825 62.725 80.225 62.825C80.425 62.825 80.625 62.825 80.825 62.825C81.625 62.825 82.525 62.825 83.325 62.825C83.525 62.825 83.725 62.825 83.825 62.825C84.025 62.825 84.225 62.725 84.425 62.625C84.925 62.325 85.325 61.525 85.225 60.925C85.225 60.325 84.925 59.825 84.425 59.525C84.225 59.225 83.825 59.125 83.325 59.225Z" fill="#284F6F"></path><path d="M74.9252 66.9258H67.8252C67.3252 66.9258 66.8252 66.5258 66.8252 65.9258C66.8252 65.4258 67.2252 64.9258 67.8252 64.9258H74.9252C75.4252 64.9258 75.9252 65.3258 75.9252 65.9258C75.9252 66.5258 75.4252 66.9258 74.9252 66.9258Z" fill="#284F6F"></path><path d="M64.6251 48.8242H77.7251C78.5251 48.8242 79.2251 49.2242 79.6251 49.8242L83.2251 55.1242C83.4251 55.5242 83.2251 55.9242 82.8251 55.9242H59.8251C59.4251 55.9242 59.2251 55.5242 59.4251 55.1242L62.9251 49.7242C63.2251 49.2242 63.9251 48.8242 64.6251 48.8242Z" fill="#284F6F"></path><path d="M48.3252 77.8242H94.8252" stroke="#2BACE2" stroke-width="3" stroke-miterlimit="10" stroke-linecap="round"></path><path d="M38.125 91.125H104.625" stroke="#2BACE2" stroke-width="3" stroke-miterlimit="10" stroke-linecap="round"></path><path d="M101.125 56.6262H99.9248C98.0248 56.6262 96.4248 55.0262 96.4248 53.1262V40.8262C96.4248 38.9262 98.0248 37.3262 99.9248 37.3262H101.125C103.025 37.3262 104.625 38.9262 104.625 40.8262V53.1262C104.725 55.0262 103.125 56.6262 101.125 56.6262Z" stroke="#2BAFE5" stroke-width="2" stroke-miterlimit="10"></path><path d="M100.525 43.3254C101.298 43.3254 101.925 42.6986 101.925 41.9254C101.925 41.1522 101.298 40.5254 100.525 40.5254C99.7518 40.5254 99.125 41.1522 99.125 41.9254C99.125 42.6986 99.7518 43.3254 100.525 43.3254Z" fill="#2BAFE5"></path><path d="M100.525 48.427C101.298 48.427 101.925 47.8002 101.925 47.027C101.925 46.2538 101.298 45.627 100.525 45.627C99.7518 45.627 99.125 46.2538 99.125 47.027C99.125 47.8002 99.7518 48.427 100.525 48.427Z" fill="#2BAFE5"></path><path d="M100.525 53.427C101.298 53.427 101.925 52.8002 101.925 52.027C101.925 51.2538 101.298 50.627 100.525 50.627C99.7518 50.627 99.125 51.2538 99.125 52.027C99.125 52.8002 99.7518 53.427 100.525 53.427Z" fill="#2BAFE5"></path><path d="M100.524 56.627V77.127" stroke="#2BAFE5" stroke-width="2" stroke-miterlimit="10" stroke-linecap="round"></path></svg> 