<?xml version="1.0" encoding="UTF-8"?> <svg xmlns="http://www.w3.org/2000/svg" width="136" height="135" viewBox="0 0 136 135" fill="none"><path d="M132.899 65.7164C132.788 64.6986 132.577 63.701 132.274 62.7135C131.71 60.8996 130.823 59.1664 129.614 57.6045C129.201 57.0704 128.758 56.5363 128.264 56.0425L127.629 55.4077L78.9675 6.74623C72.6392 0.417923 62.3507 0.417923 56.0325 6.74623L15.1302 47.6485L12.5405 50.2382L6.74623 56.0325C0.417923 62.3608 0.417923 72.6493 6.74623 78.9675L22.1236 94.3449L25.4692 97.6905L37.1382 109.36L39.2544 111.476L56.0325 128.254C59.1966 131.418 63.3483 133 67.5 133C71.6517 133 75.8034 131.418 78.9675 128.254L99.9578 107.264L102.548 104.674L128.254 78.9675C131.871 75.3499 133.413 70.4223 132.889 65.6962L132.899 65.7164Z" stroke="#2BACE2" stroke-width="3.02308" stroke-miterlimit="10"></path><path d="M60.7596 56.063V52.5764C60.7596 48.5053 59.9131 43.2754 43.8505 43.2754C27.7879 43.2754 26.9414 48.5053 26.9414 52.5764V72.0249C26.9414 75.7634 29.9746 78.7865 33.703 78.7865H51.1764" stroke="#2BAFE5" stroke-width="2.01538" stroke-miterlimit="10"></path><path d="M33.6937 72.0358C35.0961 72.0358 36.2331 70.8989 36.2331 69.4964C36.2331 68.0939 35.0961 66.957 33.6937 66.957C32.2912 66.957 31.1543 68.0939 31.1543 69.4964C31.1543 70.8989 32.2912 72.0358 33.6937 72.0358Z" stroke="#2BAFE5" stroke-width="2.01538" stroke-miterlimit="10"></path><path d="M36.2308 78.7969L31.1621 83.8656" stroke="#2BAFE5" stroke-width="2.01538" stroke-miterlimit="10" stroke-linecap="round"></path><path d="M48.7068 63.5709H30.3164V51.7305H57.3729V56.2953" stroke="#2BAFE5" stroke-width="2.01538" stroke-linecap="round" stroke-linejoin="round"></path><path d="M37.0801 48.3555H50.6134" stroke="#2BAFE5" stroke-width="2.01538" stroke-linecap="round" stroke-linejoin="round"></path><path d="M48.75 82.1719H50.1708" stroke="#2BAFE5" stroke-width="2.01538" stroke-linecap="square" stroke-linejoin="round"></path><path d="M32.8457 82.1719H48.7471" stroke="#2BAFE5" stroke-width="2.01538" stroke-linecap="round" stroke-linejoin="round"></path><path d="M113.511 82.2215C116.539 82.2215 118.993 79.7672 118.993 76.7397C118.993 73.7121 116.539 71.2578 113.511 71.2578C110.484 71.2578 108.029 73.7121 108.029 76.7397C108.029 79.7672 110.484 82.2215 113.511 82.2215Z" stroke="#2BAFE5" stroke-width="1.71308" stroke-miterlimit="10"></path><path d="M93.3984 72.0035C94.2147 71.5299 95.1518 71.2578 96.1696 71.2578C99.1927 71.2578 101.651 73.7065 101.651 76.7397C101.651 79.7728 99.2027 82.2215 96.1696 82.2215C95.7564 82.2215 95.3534 82.1711 94.9604 82.0905" stroke="#2BAFE5" stroke-width="1.71308" stroke-miterlimit="10"></path><path d="M93.0938 72.1951C93.1945 72.1346 93.2852 72.0641 93.386 72.0137" stroke="#2BAFE5" stroke-width="1.71308" stroke-miterlimit="10"></path><path d="M113.51 76.7391L109.398 65.7754H107.121" stroke="#2BAFE5" stroke-width="1.71308" stroke-linecap="round" stroke-linejoin="round"></path><path d="M100.722 66.6934H98.8984" stroke="#2BAFE5" stroke-width="1.71308" stroke-miterlimit="10" stroke-linecap="round"></path><path d="M98.8972 66.6934L104.379 76.7401H96.1562L99.8948 68.5173H110.425L104.379 76.7401" stroke="#2BAFE5" stroke-width="1.71308" stroke-linecap="round" stroke-linejoin="round"></path><path d="M75.6631 58.6523H61.4849C59.8121 58.6523 58.3207 59.6802 57.7161 61.2421L54.3303 70.0897C54.1187 70.6741 54.0078 71.2989 54.0078 71.9237V78.1512C54.0078 78.8969 54.6124 79.4914 55.348 79.4914H76.1267" stroke="#2BAFE5" stroke-width="2.01538" stroke-linecap="round" stroke-linejoin="round"></path><path d="M80.1866 59.7309C79.451 59.0456 78.4836 58.6426 77.4356 58.6426H75.6621" stroke="#2BAFE5" stroke-width="2.01538" stroke-linecap="round" stroke-linejoin="round"></path><path d="M54.0078 78.1406V81.4962C54.0078 82.2419 54.6124 82.8365 55.348 82.8365H57.3634C58.1091 82.8365 58.7037 82.2319 58.7037 81.4962V79.4809" stroke="#2BAFE5" stroke-width="2.01538" stroke-miterlimit="10"></path><path d="M74.1191 68.7285H77.3236" stroke="#2BAFE5" stroke-width="2.01538" stroke-linejoin="round"></path><path d="M55.3496 68.0547L56.3271 68.3771C57.0123 68.6089 57.7278 68.7198 58.4533 68.7198H74.1229" stroke="#2BAFE5" stroke-width="2.01538" stroke-linecap="round" stroke-linejoin="round"></path><path d="M60.7294 74.7765H58.0388C56.9304 74.7765 56.0234 73.8696 56.0234 72.7611C56.0234 72.3882 56.3257 72.0859 56.6986 72.0859H59.3891C60.4976 72.0859 61.4045 72.9929 61.4045 74.1013C61.4045 74.4742 61.1022 74.7765 60.7294 74.7765Z" stroke="#2BAFE5" stroke-width="2.01538" stroke-miterlimit="10"></path><path d="M74.8361 76.791H64.084" stroke="#2BAFE5" stroke-width="2.01538" stroke-miterlimit="10" stroke-linecap="round"></path><path d="M54.6831 67.3898H52.3352C51.4081 67.3898 50.6523 66.634 50.6523 65.7069C50.6523 65.1527 51.1058 64.6992 51.66 64.6992H53.6754C54.2297 64.6992 54.6831 65.1527 54.6831 65.7069V67.3898Z" stroke="#2BAFE5" stroke-width="2.01538" stroke-miterlimit="10"></path><path d="M88.6034 57.947C89.9279 57.947 91.0017 56.8733 91.0017 55.5487C91.0017 54.2242 89.9279 53.1504 88.6034 53.1504C87.2788 53.1504 86.2051 54.2242 86.2051 55.5487C86.2051 56.8733 87.2788 57.947 88.6034 57.947Z" stroke="#2BAFE5" stroke-width="1.71308" stroke-miterlimit="10"></path><path d="M88.8052 69.9504L90.0144 62.5137C90.2562 61.0525 89.1276 59.7324 87.6564 59.7324H86.2255C85.9433 59.7324 85.6611 59.8332 85.4495 60.0247L81.2575 63.612C81.1165 63.733 81.0157 63.874 80.9351 64.0454L79.1515 68.1668C78.8995 68.7613 79.1112 69.497 79.6956 69.7791C79.8669 69.8597 80.0483 69.9 80.2297 69.9C80.6932 69.9 81.1366 69.628 81.3281 69.1745L83.0311 65.2445L85.0666 63.5012" stroke="#2BAFE5" stroke-width="1.71308" stroke-linecap="round" stroke-linejoin="round"></path><path d="M84.4011 67.6816L83.2926 74.806L79.3324 79.8949C78.9596 80.3685 78.9495 81.0638 79.3626 81.4971C79.6045 81.749 79.9169 81.88 80.2393 81.88C80.592 81.88 80.9447 81.7188 81.1866 81.4165L85.3181 76.0959C85.4793 75.8843 85.5902 75.6525 85.6507 75.3905L86.5173 71.6016" stroke="#2BAFE5" stroke-width="1.71308" stroke-linecap="round" stroke-linejoin="round"></path><path d="M90.3465 72.3778L88.8047 69.9492" stroke="#2BAFE5" stroke-width="1.71308" stroke-linecap="round" stroke-linejoin="round"></path><path d="M88.9766 74.7853L89.3091 75.2086L91.0524 81.033C91.2036 81.547 91.6873 81.8896 92.2012 81.8896C92.3926 81.8896 92.5841 81.8493 92.7655 81.7485C93.2794 81.4764 93.491 80.8416 93.3197 80.2773C92.9066 78.8866 91.8485 75.3799 91.5663 74.4326C91.5159 74.2714 91.4555 74.1303 91.3648 73.9893L90.337 72.377" stroke="#2BAFE5" stroke-width="1.71308" stroke-linecap="round" stroke-linejoin="round"></path><path d="M85.0465 63.5098L84.3915 67.6816C84.2908 68.3366 84.4621 69.0017 84.8652 69.5257L88.9665 74.7858" stroke="#2BAFE5" stroke-width="1.71308" stroke-linecap="round" stroke-linejoin="round"></path><path d="M95.2759 65.4849L92.9079 64.6989L89.4414 60.5371" stroke="#2BAFE5" stroke-width="1.71308" stroke-miterlimit="10"></path><path d="M93.8027 67.5199L95.405 68.054C95.5259 68.0943 95.6569 68.1144 95.7879 68.1144C96.2917 68.1144 96.7553 67.8021 96.9266 67.2982C97.1382 66.6734 96.7956 65.9983 96.1708 65.7867L95.274 65.4844" stroke="#2BAFE5" stroke-width="1.71308" stroke-miterlimit="10"></path><path d="M89.6836 64.5586L91.2757 66.4934C91.4168 66.6647 91.6083 66.7957 91.8199 66.8662L93.8051 67.5313" stroke="#2BAFE5" stroke-width="1.71308" stroke-miterlimit="10"></path></svg> 