<?xml version="1.0" encoding="UTF-8"?> <svg xmlns="http://www.w3.org/2000/svg" width="136" height="135" viewBox="0 0 136 135" fill="none"><path d="M133.025 66.225C132.925 65.225 132.725 64.225 132.425 63.225C131.825 61.425 131.025 59.725 129.825 58.125C129.425 57.625 128.925 57.025 128.525 56.625L127.925 56.025L79.625 7.725C73.325 1.425 63.125 1.425 56.825 7.725L16.125 48.325L13.525 50.925L7.725 56.725C1.425 63.025 1.425 73.225 7.725 79.525L23.125 94.625L26.425 97.925L38.025 109.525L40.125 111.625L56.825 128.325C59.925 131.425 64.125 133.025 68.225 133.025C72.325 133.025 76.425 131.425 79.625 128.325L100.425 107.525L103.025 104.925L128.525 79.425C132.025 75.825 133.525 70.925 133.025 66.225Z" stroke="#2BACE2" stroke-width="3" stroke-miterlimit="10"></path><path d="M31.125 33.3242L43.525 79.2242L56.725 128.324" stroke="#2BACE2" stroke-width="3" stroke-miterlimit="10" stroke-linecap="round"></path><path d="M67.7246 133.026L51.2246 71.6258L67.0246 67.4258" stroke="#2BACE2" stroke-width="3" stroke-miterlimit="10" stroke-linecap="round"></path><path d="M38.8252 25.7246L48.8252 62.7246L71.4252 56.9246" stroke="#2BACE2" stroke-width="3" stroke-miterlimit="10" stroke-linecap="round"></path><path d="M108.525 74.9258L86.2246 81.5258L56.2246 90.3258" stroke="#2BACE2" stroke-width="3" stroke-miterlimit="10" stroke-linecap="round"></path><path d="M86.7246 81.3242L93.3246 104.624" stroke="#2BACE2" stroke-width="3" stroke-miterlimit="10" stroke-linecap="round"></path><path d="M43.5254 79.2246L15.0254 86.6246" stroke="#2BACE2" stroke-width="3" stroke-miterlimit="10"></path><path d="M94.4254 41.5254L82.0254 68.8254" stroke="#2BACE2" stroke-width="2.5" stroke-miterlimit="10" stroke-linecap="round" stroke-linejoin="round"></path><path d="M73.0254 64.7258L85.4254 37.4258" stroke="#2BACE2" stroke-width="2.5" stroke-miterlimit="10" stroke-linecap="round" stroke-linejoin="round"></path><path d="M82.0254 68.8246L73.4254 76.8246L73.0254 64.7246L82.0254 68.8246Z" stroke="#2BACE2" stroke-width="2.5" stroke-miterlimit="10" stroke-linecap="round" stroke-linejoin="round"></path><path d="M85.4258 37.4258L94.4258 41.5258" stroke="#2BACE2" stroke-width="2.5" stroke-miterlimit="10" stroke-linecap="round" stroke-linejoin="round"></path><path d="M89.925 39.5254L85.125 50.0254" stroke="#2BACE2" stroke-width="2.5" stroke-miterlimit="10" stroke-linecap="round" stroke-linejoin="round"></path><path d="M97.2256 33.7254L89.3256 30.1254C89.0256 30.0254 88.6256 30.1254 88.5256 30.4254L86.8256 34.1254C86.7256 34.4254 86.8256 34.8254 87.1256 34.9254L95.0256 38.5254C95.3256 38.6254 95.7256 38.5254 95.8256 38.2254L97.5256 34.5254C97.7256 34.2254 97.6256 33.8254 97.2256 33.7254Z" stroke="#2BACE2" stroke-width="2.5" stroke-miterlimit="10" stroke-linecap="round" stroke-linejoin="round"></path></svg> 