<?xml version="1.0" encoding="UTF-8"?> <svg xmlns="http://www.w3.org/2000/svg" width="51" height="70" viewBox="0 0 51 70" fill="none"><path d="M50.0192 0H0.98077C0.420331 0 0 0.420328 0 0.980768V25.5C0 27.2514 0.700552 28.9327 1.96154 30.1937L6.30495 34.467L1.96154 38.8104C-0.630492 41.4025 -0.630492 45.6058 1.96154 48.1978L20.8063 67.0426C22.0673 68.3036 23.7486 69.0041 25.5 69.0041C27.2514 69.0041 28.9327 68.3036 30.1937 67.0426L49.0385 48.1978C51.6305 45.6058 51.6305 41.4025 49.0385 38.8104L44.7651 34.5371L49.0385 30.2637C50.2995 29.0028 51 27.3214 51 25.5701V9.87775V0.980768C51 0.490383 50.5797 0 50.0192 0ZM49.0385 25.5C49.0385 26.761 48.5481 27.8819 47.7074 28.7926L43.364 33.136L42.6635 33.8365L41.9629 34.5371L28.7926 47.7074C27.8819 48.6181 26.761 49.0385 25.5 49.0385C24.239 49.0385 23.1181 48.5481 22.2074 47.7074L17.9341 43.4341L34.397 26.9712L35.0975 26.2706L35.7981 25.5701L49.1085 12.2596V25.5H49.0385ZM25.5 67.0426C24.239 67.0426 23.1181 66.5522 22.2074 65.7115L3.36264 46.8668C1.54121 45.0453 1.54121 42.103 3.36264 40.2816L7.70604 35.9382L11.419 39.6511L15.8324 44.0646L20.8764 49.1085C22.1374 50.3695 23.8187 51.0701 25.5701 51.0701C27.3214 51.0701 29.0028 50.3695 30.2637 49.1085L43.4341 35.9382L47.7074 40.2115C49.5288 42.033 49.5288 44.9753 47.7074 46.7967L28.8626 65.6415C27.8819 66.5522 26.761 67.0426 25.5 67.0426ZM1.96154 2.03159H38.8104L7.63599 33.136L3.36264 28.8626C2.45193 27.9519 2.03159 26.831 2.03159 25.5701V2.03159H1.96154ZM49.0385 9.45742L34.3269 24.169L33.6264 24.8695L32.9258 25.5701L16.4629 42.033L13.4506 39.0206L29.9135 22.5577L30.614 21.8571L31.3146 21.1566L46.3063 6.16484L49.0385 3.43269V9.45742ZM45.6058 4.06319L44.9052 4.76374L29.9135 19.7555L29.2129 20.456L28.5124 21.1566L12.0495 37.6195L9.03709 34.6071L24.4492 19.1951L25.5701 18.0742L41.6126 2.03159H47.6374L45.6058 4.06319Z" fill="#00AEEF"></path><path d="M12.4694 17.6529C12.6795 17.8631 12.8897 17.9331 13.1699 17.9331C13.4501 17.9331 13.6603 17.8631 13.8705 17.6529L22.6974 8.89603C23.1177 8.4757 23.1177 7.84521 22.6974 7.49493C22.277 7.07461 21.6466 7.07461 21.2963 7.49493L20.0353 8.75592L13.24 15.5513L9.38693 11.7683L9.03666 11.418C8.61633 10.9977 7.98583 10.9977 7.63556 11.418C7.21523 11.8383 7.21523 12.4688 7.63556 12.8191L12.4694 17.6529Z" fill="#00AEEF"></path></svg> 