<?xml version="1.0" encoding="UTF-8"?> <svg xmlns="http://www.w3.org/2000/svg" width="79" height="55" viewBox="0 0 79 55" fill="none"><path d="M76.944 22.4876L57.2111 2.68621C55.9093 1.38439 54.1964 0.699219 52.3464 0.699219C50.4965 0.699219 48.7836 1.38439 47.4817 2.68621L27.6804 22.4876C26.3785 23.7894 25.6934 25.5023 25.6934 27.3523C25.6934 29.2023 26.3785 30.9152 27.6804 32.217L35.6283 40.165C36.0394 40.5761 36.6561 40.5761 36.9987 40.165C37.4098 39.7539 37.4098 39.1372 36.9987 38.7946L29.0507 30.8467C27.1322 28.9282 27.1322 25.7764 29.0507 23.8579L48.7836 4.05655C49.7428 3.09731 50.9761 2.61769 52.2779 2.61769C53.5797 2.61769 54.8131 3.16583 55.7723 4.05655L75.5737 23.8579C77.4921 25.7764 77.4921 28.9282 75.5737 30.8467L55.8408 50.6481C53.9223 52.5665 50.7705 52.5665 48.8521 50.6481L43.3707 45.1667C42.9596 44.7556 42.343 44.7556 42.0004 45.1667C41.5893 45.5778 41.5893 46.1945 42.0004 46.537L47.4817 52.0184C48.8521 53.3887 50.565 54.0054 52.3464 54.0054C54.1279 54.0054 55.9093 53.3202 57.2111 52.0184L77.0125 32.217C78.3144 30.9152 78.9995 29.2023 78.9995 27.3523C78.9995 25.5023 78.2458 23.7894 76.944 22.4876Z" fill="#00AEEF"></path><path d="M53.3062 27.3523C53.3062 25.5023 52.621 23.7894 51.3192 22.4876L43.3712 14.5396C42.9601 14.1285 42.3435 14.1285 42.0009 14.5396C41.5898 14.9507 41.5898 15.5674 42.0009 15.91L49.9488 23.8579C51.8673 25.7764 51.8673 28.9282 49.9488 30.8467L30.1474 50.6481C28.229 52.5665 25.0772 52.5665 23.1587 50.6481L3.35733 30.8467C1.43885 28.9282 1.43885 25.7764 3.35733 23.8579L23.0902 4.05655C24.0494 3.09731 25.2827 2.61769 26.5846 2.61769C27.8864 2.61769 29.1197 3.16583 30.0789 4.05655L35.5603 9.5379C35.9714 9.949 36.588 9.949 36.9306 9.5379C37.3417 9.1268 37.3417 8.51015 36.9306 8.16756L31.4493 2.68621C30.1474 1.38439 28.4345 0.699219 26.5846 0.699219C24.7346 0.699219 23.0217 1.38439 21.7199 2.68621L1.98699 22.4876C0.685168 23.7894 0 25.5023 0 27.3523C0 29.2023 0.685168 30.9152 1.98699 32.217L21.7199 52.0184C23.0902 53.3887 24.8031 54.0054 26.5846 54.0054C28.366 54.0054 30.1474 53.3202 31.4493 52.0184L51.2507 32.217C52.5525 30.9152 53.3062 29.2023 53.3062 27.3523Z" fill="#00AEEF"></path></svg> 