<?xml version="1.0" encoding="UTF-8"?> <svg xmlns="http://www.w3.org/2000/svg" width="69" height="63" viewBox="0 0 69 63" fill="none"><path d="M66.3823 37.5302L52.3541 29.4758C51.213 20.6158 43.6284 13.7695 34.4329 13.7695C25.3045 13.7695 17.7198 20.5487 16.5788 29.3415L2.48346 37.5302C0.939689 38.4028 0 40.0137 0 41.7588C0 43.504 0.872567 45.1149 2.41634 46.0546L26.2442 60.0828C28.7276 61.5594 31.5467 62.2977 34.2986 62.2977C37.0506 62.2977 39.8025 61.5594 42.286 60.1499L57.858 51.0886C57.858 51.0886 57.858 51.0886 57.9251 51.0886C57.9251 51.0886 57.9251 51.0886 57.9922 51.0886L66.5165 46.1217C68.0603 45.2491 69 43.6382 69 41.826C69 40.0137 67.9261 38.4028 66.3823 37.5302ZM18.1897 31.825C18.1897 31.3551 18.1897 30.8853 18.2568 30.4826C18.2568 30.0798 18.3239 29.7442 18.391 29.4086C18.4582 29.0059 18.5253 28.6032 18.5924 28.2676C20.2704 21.0186 26.714 15.6489 34.4329 15.6489C42.2189 15.6489 48.7296 21.1528 50.3405 28.4689C50.4076 28.8717 50.4747 29.2073 50.5418 29.61C50.6089 29.9456 50.6089 30.3483 50.6761 30.6839C50.6761 31.0867 50.7432 31.4894 50.7432 31.8921V43.1684C50.7432 45.6518 48.7296 47.7326 46.179 47.7326H22.7539C20.2704 47.7326 18.1897 45.719 18.1897 43.1684V31.825ZM65.5097 44.5108L56.9854 49.4777C56.9854 49.4777 56.9854 49.4777 56.9183 49.4777C56.9183 49.4777 56.9183 49.4777 56.8512 49.4777L41.2792 58.539C36.8492 61.0896 31.4124 61.0896 27.0496 58.4719L3.22179 44.4437C2.21498 43.8396 1.67802 42.8328 1.67802 41.6917C1.67802 40.5507 2.2821 39.5438 3.22179 39.0069L16.3103 31.4223C16.3103 31.4894 16.3103 31.6236 16.3103 31.6907V42.967C16.3103 46.4573 19.1294 49.3435 22.6868 49.3435H46.1119C49.6021 49.3435 52.4883 46.5244 52.4883 42.967V31.825C52.4883 31.7579 52.4883 31.6907 52.4883 31.6236L65.5097 39.074C66.5165 39.611 67.1206 40.6849 67.1206 41.826C67.1206 42.8999 66.5165 43.9067 65.5097 44.5108Z" fill="#00AEEF"></path><path d="M3.42264 27.9293C3.48976 27.9293 3.48976 27.9293 3.55688 27.9293C3.9596 27.9293 4.36232 27.5937 4.42944 27.191C4.49657 26.7883 4.56369 26.3855 4.63081 25.9828C6.98003 14.0353 16.5783 4.43709 28.5257 2.08786C28.9285 2.02074 29.3312 1.95362 29.7339 1.8865C30.2038 1.81938 30.5394 1.34954 30.4722 0.879693C30.4051 0.409849 29.9353 0.0742442 29.4654 0.141365C15.7728 2.2221 4.69793 13.297 2.61719 26.9896C2.61719 27.3923 2.95279 27.8622 3.42264 27.9293Z" fill="#00AEEF"></path><path d="M29.3997 7.25639C19.533 9.27001 11.8141 16.9889 9.86763 26.9227C9.80051 27.3926 10.069 27.8624 10.5388 27.9967C10.606 27.9967 10.6731 27.9967 10.7402 27.9967C11.1429 27.9967 11.5456 27.7282 11.6128 27.2583C11.6799 26.7885 11.8141 26.3186 11.9484 25.8488C14.0291 17.7943 20.3384 11.485 28.3929 9.33713C28.8628 9.20289 29.3326 9.06865 29.8025 9.00153C30.2723 8.9344 30.6079 8.39744 30.4737 7.9276C30.3394 7.45775 29.8696 7.12215 29.3997 7.25639Z" fill="#00AEEF"></path><path d="M38.9969 1.82081C39.3996 1.88793 39.8023 1.95505 40.205 2.02217C52.1525 4.37139 61.7507 13.9696 64.1 25.9171C64.1671 26.3198 64.2342 26.7226 64.3013 27.1253C64.3685 27.5951 64.7712 27.8636 65.1739 27.8636C65.241 27.8636 65.241 27.8636 65.3081 27.8636C65.778 27.7965 66.1136 27.3266 66.0465 26.8568C63.9657 13.1642 52.8908 2.08929 39.1982 0.00855228C38.7284 -0.0585683 38.2585 0.277036 38.1914 0.746881C38.1914 1.28385 38.527 1.75369 38.9969 1.82081Z" fill="#00AEEF"></path><path d="M39.4669 7.2563C38.9971 7.18918 38.5273 7.45766 38.393 7.92751C38.3259 8.39735 38.5944 8.86719 39.0642 9.00144C39.5341 9.06856 40.0039 9.2028 40.4738 9.33704C48.5282 11.4849 54.7704 17.7942 56.9183 25.8487C57.0525 26.3186 57.1868 26.7884 57.2539 27.2582C57.321 27.661 57.7238 27.9966 58.1265 27.9966C58.1936 27.9966 58.2607 27.9966 58.3278 27.9966C58.7977 27.9295 59.1333 27.4596 58.9991 26.9226C57.0526 16.9888 49.4008 9.26992 39.4669 7.2563Z" fill="#00AEEF"></path><path d="M25.2378 35.7842H31.1444V41.6908C31.1444 42.1607 31.5471 42.5634 32.017 42.5634H36.9168C37.3866 42.5634 37.7894 42.1607 37.7894 41.6908V35.7842H43.696C44.1658 35.7842 44.5685 35.3815 44.5685 34.9116V30.0118C44.5685 29.542 44.1658 29.1393 43.696 29.1393H37.7894V23.7696V23.1655C37.7894 23.0313 37.7894 22.8971 37.7222 22.8299C37.588 22.4943 37.2524 22.293 36.9168 22.293H32.017C31.6814 22.293 31.4129 22.4943 31.2787 22.7628C31.2115 22.8971 31.1444 23.0313 31.1444 23.2327V23.7025V29.0722H25.2378C24.768 29.0722 24.3652 29.4749 24.3652 29.9447V34.8445C24.3652 35.3815 24.768 35.7842 25.2378 35.7842ZM26.1104 30.8844H32.017C32.4868 30.8844 32.8896 30.4817 32.8896 30.0118V24.1052H35.9771V30.0118C35.9771 30.4817 36.3798 30.8844 36.8497 30.8844H42.7563V33.972H36.8497C36.3798 33.972 35.9771 34.3747 35.9771 34.8445V40.7511H32.8896V34.8445C32.8896 34.3747 32.4868 33.972 32.017 33.972H26.1104V30.8844Z" fill="#00AEEF"></path></svg> 