<?xml version="1.0" encoding="UTF-8"?> <svg xmlns="http://www.w3.org/2000/svg" width="66" height="67" viewBox="0 0 66 67" fill="none"><path d="M11.3218 46.4366L12.0339 45.7245L3.77393 37.2509C2.56343 36.0404 1.92257 34.4027 1.92257 32.6937C1.92257 30.9848 2.63463 29.4182 3.84514 28.2077L9.18561 23.0097L9.61285 22.5824C10.0401 22.2264 10.0401 21.5856 9.61285 21.1583C9.25682 20.7311 8.61596 20.7311 8.18872 21.1583L2.49222 26.7836C0.925682 28.3502 0 30.4863 0 32.6937C0 34.9723 0.854474 37.0373 2.42101 38.6751L10.7522 47.1486L11.3218 46.4366Z" fill="#00AEEF"></path><path d="M45.6444 53.9844L37.1709 62.2443C34.6786 64.7365 30.6199 64.6653 28.1277 62.1731L22.9296 56.8326L22.5024 56.4054C22.0751 55.9782 21.5055 55.9782 21.0782 56.4054C20.651 56.7614 20.651 57.4023 21.0782 57.8295L26.7035 63.526C28.3413 65.235 30.5487 66.0182 32.6849 66.0182C34.8211 66.0182 36.9572 65.235 38.595 63.5972L47.0685 55.2661L46.3565 54.554L45.6444 53.9844Z" fill="#00AEEF"></path><path d="M63.5864 27.4238L55.3265 19.0215L54.6144 19.7335L53.9023 20.4456L62.1623 28.848C64.6545 31.3402 64.5833 35.3989 62.0911 37.8912L56.7506 43.0892L56.3234 43.5165C55.8961 43.8725 55.8961 44.5133 56.3234 44.9406C56.537 45.1542 56.7506 45.2254 57.0354 45.2254C57.3203 45.2254 57.5339 45.1542 57.7475 44.9406L63.444 39.3153C66.7907 36.0398 66.8619 30.6993 63.5864 27.4238Z" fill="#00AEEF"></path><path d="M20.3645 12.0434L28.7668 3.8547C31.259 1.36248 35.3178 1.43369 37.81 3.92591L43.0793 9.26638L43.5065 9.69362C43.8626 10.1209 44.5034 10.1209 44.9307 9.69362C45.3579 9.33759 45.3579 8.69673 44.9307 8.26949L39.3054 2.50178C36.0299 -0.77371 30.7606 -0.844914 27.4139 2.35937L18.8691 10.6905L19.5812 11.4026L20.3645 12.0434Z" fill="#00AEEF"></path><path d="M48.5633 26.9256C49.1329 26.9256 49.5602 26.4983 49.5602 25.9287V24.8606L49.6314 17.1703V16.031V14.6069V14.5357H50.9843L59.5291 14.6069H60.526C61.0956 14.6069 61.5228 14.1797 61.5228 13.61C61.5228 13.0404 61.0956 12.6131 60.526 12.6131L48.6345 12.4707C48.0649 12.4707 47.6376 12.8979 47.6376 13.4676V13.5388L47.5664 25.9287C47.5664 26.4271 47.9936 26.9256 48.5633 26.9256Z" fill="#00AEEF"></path><path d="M17.4459 39.1738C16.8762 39.1738 16.449 39.6011 16.449 40.1707V41.2388L16.3778 49.1427V50.1396V51.5637H14.9537L6.4801 51.4925H5.48322C4.91357 51.4925 4.48633 51.9198 4.48633 52.4894C4.48633 53.0591 4.91357 53.4863 5.48322 53.4863L17.3747 53.6287C17.9443 53.6287 18.3716 53.2015 18.3716 52.6318L18.514 40.2419C18.4428 39.6723 18.0155 39.1738 17.4459 39.1738Z" fill="#00AEEF"></path><path d="M12.6025 17.7396C12.6737 17.882 12.7449 17.9532 12.8161 18.0956C13.0297 18.3092 13.2433 18.3804 13.5281 18.3804L25.8468 18.5228C26.4165 18.5228 26.8437 18.0956 26.8437 17.526C26.8437 16.9563 26.4165 16.5291 25.8468 16.5291H24.7787L17.0172 16.4579H15.9492H14.525V15.0337L14.5962 6.56018V5.5633C14.5962 4.99365 14.169 4.56641 13.5993 4.56641C13.0297 4.56641 12.6025 4.99365 12.6025 5.5633L12.5312 17.3835C12.5312 17.4548 12.5312 17.5972 12.6025 17.6684C12.5312 17.6684 12.5312 17.6684 12.6025 17.7396Z" fill="#00AEEF"></path><path d="M52.55 47.7166H52.4787L40.2313 47.5742C39.6616 47.5742 39.2344 48.0015 39.2344 48.5711C39.2344 49.1408 39.6616 49.568 40.2313 49.568H41.2994L48.9896 49.6392H50.0577H51.4819H51.5531V50.9921L51.4819 59.5369V60.5338C51.4819 61.1034 51.9091 61.5307 52.4787 61.5307C53.0484 61.5307 53.4756 61.1034 53.4756 60.5338L53.618 48.6423C53.618 48.3575 53.5468 48.1439 53.3332 47.9303C53.0484 47.859 52.7636 47.7166 52.55 47.7166Z" fill="#00AEEF"></path></svg> 