<svg width="46" height="42" viewBox="0 0 46 42" fill="none" xmlns="http://www.w3.org/2000/svg">
<path d="M2.16797 13.5602C2.16797 11.259 4.03345 9.39355 6.33464 9.39355H39.668C41.9692 9.39355 43.8346 11.259 43.8346 13.5602V17.0076C43.8346 18.8477 42.6277 20.4699 40.8652 20.9986L25.3959 25.6394C23.8339 26.108 22.1687 26.108 20.6068 25.6394L5.13736 20.9986C3.37492 20.4699 2.16797 18.8477 2.16797 17.0076V13.5602Z" stroke="#4EADEA" stroke-width="3.125"/>
<path d="M23.002 20.1075L23.002 16.5361" stroke="#4EADEA" stroke-width="3.125" stroke-linecap="round" stroke-linejoin="round"/>
<path d="M3.90625 20.1064L3.90625 31.4159C3.90625 36.0182 7.63721 39.7492 12.2396 39.7492H33.7674C38.3697 39.7492 42.1007 36.0182 42.1007 31.4159V20.1064" stroke="#4EADEA" stroke-width="3.125"/>
<path d="M29.9436 9.39282V6.41667C29.9436 4.11548 28.0781 2.25 25.7769 2.25H20.2214C17.9202 2.25 16.0547 4.11548 16.0547 6.41666L16.0547 9.39282" stroke="#4EADEA" stroke-width="3.125"/>
</svg>
