<svg width="46" height="35" viewBox="0 0 46 35" fill="none" xmlns="http://www.w3.org/2000/svg">
<circle r="7.0922" transform="matrix(-1 0 0 1 23.443 9.50821)" stroke="#4EADEA" stroke-width="3.125"/>
<path d="M11.0332 27.1229C11.0332 25.5974 11.9922 24.2366 13.4288 23.7236V23.7236C19.9056 21.4104 26.9835 21.4104 33.4603 23.7236V23.7236C34.8969 24.2366 35.8559 25.5974 35.8559 27.1229V29.4553C35.8559 31.5607 33.9912 33.178 31.9069 32.8802L31.212 32.7809C26.0599 32.0449 20.8292 32.0449 15.6771 32.7809L14.9822 32.8802C12.8979 33.178 11.0332 31.5607 11.0332 29.4553V27.1229Z" stroke="#4EADEA" stroke-width="3.125"/>
<path d="M34.0779 16.7963C37.1555 16.7963 39.6504 14.3014 39.6504 11.2238C39.6504 8.14623 37.1555 5.65137 34.0779 5.65137" stroke="#4EADEA" stroke-width="3.125" stroke-linecap="round"/>
<path d="M40.1821 29.5091L40.7281 29.5871C42.3657 29.821 43.8309 28.5503 43.8309 26.8961V25.0635C43.8309 23.8649 43.0774 22.7957 41.9486 22.3926C40.8227 21.9905 39.6737 21.6773 38.5117 21.4531" stroke="#4EADEA" stroke-width="3.125" stroke-linecap="round"/>
<path d="M11.9221 16.7963C8.84448 16.7963 6.34961 14.3014 6.34961 11.2238C6.34961 8.14623 8.84448 5.65137 11.9221 5.65137" stroke="#4EADEA" stroke-width="3.125" stroke-linecap="round"/>
<path d="M5.81787 29.5091L5.27188 29.5871C3.63428 29.821 2.16913 28.5503 2.16913 26.8961V25.0635C2.16913 23.8649 2.9226 22.7957 4.05135 22.3926C5.17729 21.9905 6.32634 21.6773 7.48828 21.4531" stroke="#4EADEA" stroke-width="3.125" stroke-linecap="round"/>
</svg>
