<svg width="42" height="46" viewBox="0 0 42 46" fill="none" xmlns="http://www.w3.org/2000/svg">
<path d="M32.9143 17.8488L37.342 20.244L38.2689 20.7648C40.2437 21.8743 40.2437 24.7347 38.2689 25.8442L25.6926 32.9099C22.7759 34.5486 19.2241 34.5486 16.3074 32.9099L3.73109 25.8442C1.7563 24.7347 1.7563 21.8743 3.7311 20.7648L4.65802 20.244L8.8403 17.8488M33.8773 28.513L37.9019 30.5389C39.9775 31.5838 40.0442 34.5415 38.0177 35.68L25.6926 42.6046C22.7759 44.2433 19.2241 44.2433 16.3074 42.6046L4.16208 35.781C2.10082 34.6229 2.2144 31.5998 4.35666 30.6018L8.8403 28.513M25.6926 22.6069L38.2689 15.5412C40.2437 14.4317 40.2437 11.5713 38.2689 10.4618L25.6926 3.39601C22.7759 1.75732 19.2241 1.75732 16.3074 3.39601L3.7311 10.4618C1.75631 11.5713 1.7563 14.4317 3.73109 15.5412L16.3074 22.6069C19.2241 24.2456 22.7759 24.2456 25.6926 22.6069Z" stroke="#4EADEA" stroke-width="3.125"/>
</svg>
