<?xml version="1.0" encoding="UTF-8"?> <svg xmlns="http://www.w3.org/2000/svg" width="50" height="50" viewBox="0 0 50 50" fill="none"><path d="M36.9143 19.8486L41.342 22.2437L42.2689 22.7645C44.2437 23.874 44.2437 26.7344 42.2689 27.8439L29.6926 34.9097C26.7759 36.5484 23.2241 36.5484 20.3074 34.9097L7.73109 27.8439C5.7563 26.7344 5.7563 23.874 7.7311 22.7645L8.65802 22.2437L12.8403 19.8486M37.8773 30.5128L41.9019 32.5387C43.9775 33.5835 44.0442 36.5413 42.0177 37.6798L29.6926 44.6044C26.7759 46.2431 23.2241 46.2431 20.3074 44.6044L8.16208 37.7808C6.10082 36.6227 6.2144 33.5996 8.35666 32.6016L12.8403 30.5128M29.6926 24.6067L42.2689 17.5409C44.2437 16.4314 44.2437 13.571 42.2689 12.4615L29.6926 5.39577C26.7759 3.75708 23.2241 3.75707 20.3074 5.39577L7.7311 12.4615C5.75631 13.571 5.7563 16.4314 7.73109 17.5409L20.3074 24.6067C23.2241 26.2454 26.7759 26.2454 29.6926 24.6067Z" stroke="white" stroke-width="3.125"></path></svg> 