<?xml version="1.0" encoding="UTF-8"?> <svg xmlns="http://www.w3.org/2000/svg" width="186" height="108" viewBox="0 0 186 108" fill="none"><path d="M1.98176 27.526C2.09027 27.2656 2.25303 27.1029 2.47004 27.0378C2.70876 26.9727 2.95832 27.1354 3.21874 27.526C3.21874 27.5694 3.3164 27.6345 3.51171 27.7214C3.72872 27.7865 3.98914 27.8733 4.29296 27.9818C4.61848 28.0686 4.9874 28.1662 5.39973 28.2747C5.83376 28.3615 6.25693 28.4484 6.66926 28.5352C7.08159 28.6003 7.48306 28.6654 7.87369 28.7305C8.26431 28.7739 8.60068 28.7956 8.8828 28.7956C9.62065 28.7956 10.2934 28.6437 10.901 28.3398C11.5304 28.0143 12.0621 27.602 12.4961 27.1029C12.9518 26.6037 13.299 26.0395 13.5378 25.4102C13.7765 24.7591 13.8958 24.0972 13.8958 23.4245C13.8958 23.2292 13.8633 22.8928 13.7982 22.4154C13.7331 21.9162 13.6246 21.428 13.4726 20.9505C13.3207 20.4514 13.1146 20.0065 12.8542 19.6159C12.6154 19.2253 12.3225 19.0299 11.9753 19.0299C9.71831 19.2904 7.86284 19.3989 6.40884 19.3555C4.97655 19.2904 3.83723 19.1168 2.99088 18.8346C2.14452 18.5525 1.54773 18.1727 1.20051 17.6953C0.87499 17.1962 0.701379 16.6319 0.679677 16.0026C0.679677 15.2214 0.87499 14.4727 1.26561 13.7565C1.65624 13.0187 2.15537 12.3676 2.76301 11.8034C3.37065 11.2391 4.04339 10.7943 4.78124 10.4687C5.54079 10.1215 6.28949 9.94792 7.02733 9.94792C7.63497 9.94792 8.26431 10.0239 8.91536 10.1758C9.5881 10.3277 10.2066 10.5664 10.7708 10.8919C11.3351 11.1957 11.7908 11.6081 12.138 12.1289C12.5069 12.628 12.6914 13.2357 12.6914 13.9518C12.1706 13.9518 11.6931 13.8108 11.2591 13.5286C10.8251 13.2248 10.391 12.9102 9.95702 12.5846C9.52299 12.2591 9.06726 11.9553 8.58983 11.6732C8.1124 11.3694 7.55902 11.2174 6.92968 11.2174C6.40884 11.2174 5.87716 11.3477 5.33463 11.6081C4.81379 11.8685 4.33636 12.2049 3.90233 12.6172C3.49001 13.0295 3.14279 13.4961 2.86067 14.0169C2.60025 14.5161 2.47004 15.0369 2.47004 15.5794C2.47004 15.7964 2.47004 16.0352 2.47004 16.2956C2.49174 16.5343 2.546 16.773 2.6328 17.0117C2.71961 17.2287 2.84982 17.4132 3.02343 17.5651C3.21874 17.717 3.49001 17.793 3.83723 17.793H12.5937C12.9627 17.793 13.2773 17.9123 13.5378 18.151C13.8199 18.3681 14.0477 18.6502 14.2213 18.9974C14.4167 19.3446 14.5686 19.7352 14.6771 20.1693C14.8073 20.6033 14.9049 21.0265 14.97 21.4388C15.0568 21.8511 15.1111 22.2418 15.1328 22.6107C15.1545 22.9579 15.1654 23.2292 15.1654 23.4245C15.1654 24.2708 15.046 25.0738 14.8073 25.8333C14.5686 26.5712 14.2105 27.2439 13.7331 27.8516C13.2556 28.4375 12.6588 28.9258 11.9427 29.3164C11.2266 29.6853 10.4019 29.9132 9.46874 30C9.01301 30.0434 8.41622 30.0326 7.67838 29.9674C6.96223 29.9023 6.23523 29.783 5.49739 29.6094C4.75954 29.4141 4.06509 29.1536 3.41405 28.8281C2.76301 28.4809 2.28558 28.0469 1.98176 27.526ZM16.4922 24.4336C16.4922 23.6306 16.6224 22.7409 16.8828 21.7643C17.1432 20.7878 17.523 19.8872 18.0221 19.0625C18.5213 18.2161 19.1397 17.5108 19.8776 16.9466C20.6154 16.3824 21.4726 16.1003 22.4492 16.1003C22.9483 16.0352 23.3498 16.0894 23.6536 16.263C23.9575 16.4149 24.1853 16.6645 24.3372 17.0117C24.5108 17.3589 24.6194 17.7604 24.6628 18.2161C24.7279 18.6502 24.7604 19.1059 24.7604 19.5833C24.7821 20.0391 24.7821 20.4731 24.7604 20.8854C24.7604 21.276 24.7821 21.6016 24.8255 21.862H24.0117C23.99 21.7318 23.9466 21.428 23.8815 20.9505C23.8381 20.4514 23.7513 19.9414 23.6211 19.4206C23.4909 18.8997 23.3064 18.4332 23.0677 18.0208C22.8507 17.6085 22.536 17.4023 22.1237 17.4023C21.5161 17.4023 20.941 17.6411 20.3984 18.1185C19.8776 18.5959 19.4219 19.171 19.0312 19.8437C18.6406 20.5165 18.3259 21.2109 18.0872 21.9271C17.8485 22.6432 17.7292 23.24 17.7292 23.7174C17.7509 24.26 17.8268 24.8568 17.957 25.5078C18.0872 26.1372 18.2934 26.7122 18.5755 27.2331C18.8793 27.7539 19.27 28.1771 19.7474 28.5026C20.2248 28.8281 20.8108 28.9258 21.5052 28.7956C22.026 28.7956 22.5252 28.6871 23.0026 28.4701C23.48 28.253 23.9466 28.0252 24.4023 27.7865C24.8581 27.5477 25.3138 27.3199 25.7695 27.1029C26.247 26.8859 26.7461 26.7773 27.2669 26.7773C27.2669 27.3416 27.0608 27.8407 26.6484 28.2747C26.2361 28.6871 25.7261 29.0234 25.1185 29.2839C24.5325 29.5443 23.9032 29.7396 23.2305 29.8698C22.5794 30 22.026 30.0651 21.5703 30.0651C20.8325 30.0651 20.1489 29.9132 19.5195 29.6094C18.9119 29.3056 18.3802 28.9041 17.9245 28.4049C17.4687 27.8841 17.1107 27.2873 16.8503 26.6146C16.6115 25.9201 16.4922 25.1931 16.4922 24.4336ZM28.1706 17.3047C28.431 17.1962 28.6588 17.1745 28.8542 17.2396C29.0495 17.3047 29.2122 17.424 29.3424 17.5977C29.4726 17.7713 29.5703 17.9774 29.6354 18.2161C29.7005 18.4332 29.7548 18.6502 29.7982 18.8672C30.0803 18.3898 30.4818 18.01 31.0026 17.7279C31.5451 17.424 32.1202 17.2287 32.7279 17.1419C33.3355 17.0334 33.9431 17.0117 34.5508 17.0768C35.1584 17.1202 35.6684 17.2504 36.0807 17.4674C36.5148 17.6628 36.8186 17.9449 36.9922 18.3138C37.1658 18.661 37.1224 19.0733 36.862 19.5508C36.2977 19.2253 35.7009 18.9648 35.0716 18.7695C34.464 18.5742 33.8672 18.5091 33.2812 18.5742C32.6953 18.6393 32.1528 18.8672 31.6536 19.2578C31.1545 19.6267 30.7422 20.2235 30.4167 21.0482C30.0911 21.8728 29.885 22.9687 29.7982 24.3359C29.7331 25.6814 29.8307 27.3633 30.0911 29.3815H28.8542C28.8542 29.3815 28.8325 29.2079 28.7891 28.8607C28.7674 28.4918 28.7348 28.0143 28.6914 27.4284C28.6697 26.8424 28.6263 26.1914 28.5612 25.4753C28.5178 24.7591 28.4744 24.0321 28.431 23.2943C28.3876 22.5564 28.3442 21.8511 28.3008 21.1784C28.2791 20.4839 28.2465 19.8872 28.2031 19.388C28.2031 19.3229 28.1923 19.1927 28.1706 18.9974C28.1706 18.8021 28.1706 18.5959 28.1706 18.3789C28.1706 18.1402 28.1706 17.9232 28.1706 17.7279C28.1706 17.5326 28.1706 17.3915 28.1706 17.3047ZM38.1562 24.043C38.1562 23.5438 38.1996 22.9687 38.2865 22.3177C38.3733 21.645 38.5143 20.9722 38.7096 20.2995C38.9049 19.6267 39.1437 18.9648 39.4258 18.3138C39.7296 17.6628 40.0877 17.0877 40.5 16.5885C40.9123 16.0677 41.3897 15.6554 41.9323 15.3516C42.4748 15.026 43.0825 14.8633 43.7552 14.8633C44.4496 14.8633 45.0898 15.102 45.6758 15.5794C46.2834 16.0569 46.7934 16.6753 47.2057 17.4349C47.6398 18.1944 47.9653 19.0408 48.1823 19.974C48.3993 20.9071 48.4861 21.8186 48.4427 22.7083C48.4427 24.0104 48.1931 25.1714 47.694 26.1914C47.1949 27.2114 46.5547 28.036 45.7734 28.6654C45.0139 29.2947 44.1892 29.7179 43.2995 29.9349C42.4314 30.1519 41.6068 30.0977 40.8255 29.7721C40.066 29.4249 39.4258 28.7847 38.9049 27.8516C38.4058 26.9184 38.1562 25.6489 38.1562 24.043ZM39.3607 24.1732C39.4258 25.497 39.6536 26.5169 40.0443 27.2331C40.4349 27.9492 40.9015 28.4266 41.444 28.6654C42.0082 28.8824 42.6159 28.8824 43.2669 28.6654C43.918 28.4484 44.5256 28.0686 45.0898 27.526C45.6541 26.9618 46.1315 26.2674 46.5221 25.4427C46.9345 24.5964 47.1623 23.6523 47.2057 22.6107C47.2491 21.8294 47.184 21.0699 47.0104 20.332C46.8585 19.5942 46.6306 18.9431 46.3268 18.3789C46.0447 17.793 45.6866 17.3372 45.2526 17.0117C44.8403 16.6645 44.3628 16.4909 43.8203 16.4909C43.2995 16.4909 42.8329 16.6211 42.4206 16.8815C42.0082 17.1419 41.6285 17.5 41.2812 17.9557C40.9557 18.3898 40.6736 18.8889 40.4349 19.4531C40.1962 20.0174 39.99 20.5816 39.8164 21.1458C39.6645 21.7101 39.5451 22.2635 39.4583 22.806C39.3932 23.3268 39.3607 23.7826 39.3607 24.1732ZM50.5508 4.70703C50.8546 4.75043 51.115 4.83724 51.332 4.96745C51.5707 5.07595 51.7552 5.28212 51.8854 5.58594C51.8854 5.99826 51.8963 6.57335 51.918 7.3112C51.9614 8.02734 51.9939 8.86285 52.0156 9.81771C52.059 10.7726 52.1024 11.8034 52.1458 12.9102C52.1892 14.0169 52.2326 15.1345 52.276 16.263C52.3194 17.3915 52.352 18.5091 52.3737 19.6159C52.4171 20.7227 52.4496 21.7535 52.4713 22.7083C52.5148 23.6632 52.5473 24.5095 52.569 25.2474C52.5907 25.9852 52.6124 26.5495 52.6341 26.9401C52.6341 26.9835 52.6233 27.0595 52.6016 27.168C52.6016 27.2765 52.5907 27.4067 52.569 27.5586C52.569 27.7105 52.5582 27.8624 52.5365 28.0143C52.5365 28.1445 52.5365 28.2422 52.5365 28.3073C52.5148 28.4375 52.5039 28.6003 52.5039 28.7956C52.5039 28.9692 52.4822 29.1428 52.4388 29.3164C52.3954 29.49 52.3194 29.6528 52.2109 29.8047C52.1241 29.9349 51.9722 30.0109 51.7552 30.0326L51.2018 29.349C51.1801 29.3273 51.1476 28.9258 51.1042 28.1445C51.0825 27.3416 51.0391 26.3108 50.974 25.0521C50.9306 23.7717 50.8871 22.3394 50.8437 20.7552C50.8003 19.1493 50.7461 17.5326 50.681 15.9049C50.6376 14.2773 50.5942 12.7148 50.5508 11.2174C50.5074 9.72005 50.4748 8.42882 50.4531 7.34375C50.4531 7.25694 50.4531 7.08333 50.4531 6.82291C50.4748 6.5625 50.4857 6.30208 50.4857 6.04166C50.5074 5.75955 50.5182 5.49913 50.5182 5.26041C50.5399 5 50.5508 4.81554 50.5508 4.70703ZM54.9375 4.70703C55.2413 4.75043 55.5017 4.83724 55.7187 4.96745C55.9575 5.07595 56.1419 5.28212 56.2721 5.58594C56.2721 5.99826 56.283 6.57335 56.3047 7.3112C56.3481 8.02734 56.3806 8.86285 56.4023 9.81771C56.4457 10.7726 56.4891 11.8034 56.5325 12.9102C56.576 14.0169 56.6194 15.1345 56.6628 16.263C56.7062 17.3915 56.7387 18.5091 56.7604 19.6159C56.8038 20.7227 56.8364 21.7535 56.8581 22.7083C56.9015 23.6632 56.934 24.5095 56.9557 25.2474C56.9774 25.9852 56.9991 26.5495 57.0208 26.9401C57.0208 26.9835 57.01 27.0595 56.9883 27.168C56.9883 27.2765 56.9774 27.4067 56.9557 27.5586C56.9557 27.7105 56.9449 27.8624 56.9232 28.0143C56.9232 28.1445 56.9232 28.2422 56.9232 28.3073C56.9015 28.4375 56.8906 28.6003 56.8906 28.7956C56.8906 28.9692 56.8689 29.1428 56.8255 29.3164C56.7821 29.49 56.7062 29.6528 56.5977 29.8047C56.5108 29.9349 56.3589 30.0109 56.1419 30.0326L55.5885 29.349C55.5668 29.3273 55.5343 28.9258 55.4909 28.1445C55.4692 27.3416 55.4258 26.3108 55.3607 25.0521C55.3173 23.7717 55.2739 22.3394 55.2305 20.7552C55.1871 19.1493 55.1328 17.5326 55.0677 15.9049C55.0243 14.2773 54.9809 12.7148 54.9375 11.2174C54.8941 9.72005 54.8615 8.42882 54.8398 7.34375C54.8398 7.25694 54.8398 7.08333 54.8398 6.82291C54.8615 6.5625 54.8724 6.30208 54.8724 6.04166C54.8941 5.75955 54.9049 5.49913 54.9049 5.26041C54.9266 5 54.9375 4.81554 54.9375 4.70703ZM74.681 18.1836C74.4857 18.1185 74.2144 18.0968 73.8672 18.1185C73.5417 18.1185 73.1836 18.1402 72.793 18.1836C72.424 18.2053 72.066 18.2378 71.7187 18.2812C71.3715 18.3247 71.0786 18.3464 70.8398 18.3464C70.7313 18.3464 70.6554 18.1944 70.612 17.8906C70.5903 17.5651 70.5469 17.1311 70.4818 16.5885L75.0716 16.263C75.1367 15.5035 75.1801 14.9609 75.2018 14.6354C75.2235 14.3099 75.2235 14.0386 75.2018 13.8216C75.2018 13.5829 75.191 13.3225 75.1693 13.0404C75.1693 12.7365 75.1693 12.27 75.1693 11.6406C75.7335 11.5538 76.1567 11.5321 76.4388 11.5755C76.7426 11.5972 76.9488 11.6732 77.0573 11.8034C77.1658 11.9336 77.2092 12.1289 77.1875 12.3893C77.1875 12.628 77.1549 12.9319 77.0898 13.3008C77.0464 13.6697 77.003 14.1146 76.9596 14.6354C76.9379 15.1562 76.9596 15.7422 77.0247 16.3932L80.931 16.263V17.8581C80.7574 17.8581 80.4861 17.8689 80.1172 17.8906C79.7483 17.9123 79.3468 17.934 78.9128 17.9557C78.5004 17.9774 78.1098 17.9991 77.7409 18.0208C77.3937 18.0425 77.1332 18.0859 76.9596 18.151C76.786 18.9323 76.6016 19.7678 76.4062 20.6576C76.2109 21.5473 76.0807 22.4262 76.0156 23.2943C75.9505 24.1623 75.9722 24.9761 76.0807 25.7357C76.1892 26.4735 76.4605 27.092 76.8945 27.5911C77.3286 28.0686 77.947 28.4049 78.75 28.6003C79.5529 28.7739 80.6163 28.7088 81.9401 28.4049C81.8967 28.7305 81.7665 29.0017 81.5495 29.2187C81.3542 29.4141 81.1154 29.5768 80.8333 29.707C80.5729 29.8155 80.2908 29.9023 79.987 29.9674C79.6832 30.0109 79.4119 30.0326 79.1732 30.0326C78.0664 30.0326 77.1875 29.8372 76.5365 29.4466C75.8854 29.0343 75.3971 28.5026 75.0716 27.8516C74.7461 27.2005 74.5399 26.4627 74.4531 25.638C74.3663 24.7917 74.3338 23.9345 74.3555 23.0664C74.3989 22.1984 74.464 21.3411 74.5508 20.4948C74.6376 19.6484 74.681 18.878 74.681 18.1836ZM82.8763 24.043C82.8763 23.5438 82.9197 22.9687 83.0065 22.3177C83.0933 21.645 83.2344 20.9722 83.4297 20.2995C83.625 19.6267 83.8637 18.9648 84.1458 18.3138C84.4496 17.6628 84.8077 17.0877 85.22 16.5885C85.6324 16.0677 86.1098 15.6554 86.6523 15.3516C87.1949 15.026 87.8025 14.8633 88.4753 14.8633C89.1697 14.8633 89.8099 15.102 90.3958 15.5794C91.0035 16.0569 91.5135 16.6753 91.9258 17.4349C92.3598 18.1944 92.6853 19.0408 92.9023 19.974C93.1194 20.9071 93.2062 21.8186 93.1628 22.7083C93.1628 24.0104 92.9132 25.1714 92.4141 26.1914C91.9149 27.2114 91.2747 28.036 90.4935 28.6654C89.7339 29.2947 88.9093 29.7179 88.0195 29.9349C87.1515 30.1519 86.3268 30.0977 85.5456 29.7721C84.786 29.4249 84.1458 28.7847 83.625 27.8516C83.1259 26.9184 82.8763 25.6489 82.8763 24.043ZM84.0807 24.1732C84.1458 25.497 84.3737 26.5169 84.7643 27.2331C85.1549 27.9492 85.6215 28.4266 86.1641 28.6654C86.7283 28.8824 87.3359 28.8824 87.987 28.6654C88.638 28.4484 89.2457 28.0686 89.8099 27.526C90.3741 26.9618 90.8516 26.2674 91.2422 25.4427C91.6545 24.5964 91.8824 23.6523 91.9258 22.6107C91.9692 21.8294 91.9041 21.0699 91.7305 20.332C91.5786 19.5942 91.3507 18.9431 91.0469 18.3789C90.7648 17.793 90.4067 17.3372 89.9727 17.0117C89.5603 16.6645 89.0829 16.4909 88.5404 16.4909C88.0195 16.4909 87.5529 16.6211 87.1406 16.8815C86.7283 17.1419 86.3485 17.5 86.0013 17.9557C85.6758 18.3898 85.3937 18.8889 85.1549 19.4531C84.9162 20.0174 84.7101 20.5816 84.5365 21.1458C84.3845 21.7101 84.2652 22.2635 84.1784 22.806C84.1133 23.3268 84.0807 23.7826 84.0807 24.1732ZM106.461 12.487C106.808 11.9878 107.264 11.5647 107.828 11.2174C108.414 10.8485 109.054 10.5447 109.749 10.306C110.465 10.0673 111.224 9.88281 112.027 9.7526C112.852 9.62239 113.655 9.52474 114.436 9.45963C115.217 9.39453 115.977 9.35113 116.715 9.32943C117.453 9.30772 118.104 9.29687 118.668 9.29687C118.711 9.29687 118.809 9.30772 118.961 9.32943C119.113 9.32943 119.276 9.34028 119.449 9.36198C119.623 9.36198 119.775 9.36198 119.905 9.36198C120.057 9.36198 120.165 9.36198 120.23 9.36198C120.317 9.83941 120.263 10.1758 120.068 10.3711C119.894 10.5447 119.655 10.6532 119.352 10.6966C119.069 10.7183 118.766 10.7075 118.44 10.6641C118.115 10.599 117.876 10.5881 117.724 10.6315C117.507 10.6532 117.16 10.7183 116.682 10.8268C116.227 10.9136 115.717 11.0221 115.152 11.1523C114.588 11.2608 113.98 11.3911 113.329 11.543C112.7 11.6732 112.092 11.8034 111.507 11.9336C110.942 12.0421 110.432 12.1506 109.977 12.2591C109.521 12.3676 109.184 12.4436 108.967 12.487C108.62 12.6172 108.425 12.7799 108.382 12.9753C108.338 13.1706 108.316 13.3984 108.316 13.6589C108.316 14.1146 108.338 14.6246 108.382 15.1888C108.447 15.753 108.512 16.3173 108.577 16.8815C108.664 17.424 108.74 17.9232 108.805 18.3789C108.891 18.8346 108.946 19.171 108.967 19.388C109.054 19.4097 109.217 19.4206 109.456 19.4206C109.694 19.4206 109.857 19.4206 109.944 19.4206C110.443 19.4206 110.931 19.3772 111.409 19.2904C111.886 19.2036 112.364 19.1059 112.841 18.9974C113.319 18.8889 113.807 18.8021 114.306 18.737C114.805 18.6502 115.315 18.6068 115.836 18.6068V19.8112C115.619 19.8112 115.315 19.8329 114.924 19.8763C114.534 19.898 114.1 19.9523 113.622 20.0391C113.167 20.1259 112.7 20.2235 112.223 20.332C111.745 20.4188 111.311 20.5165 110.921 20.625C110.53 20.7335 110.204 20.842 109.944 20.9505C109.705 21.059 109.586 21.1675 109.586 21.276V28.0469C110.606 28.0469 111.615 28.0143 112.613 27.9492C113.633 27.8841 114.653 27.819 115.673 27.7539C116.693 27.6671 117.713 27.5911 118.733 27.526C119.753 27.4609 120.773 27.4284 121.793 27.4284C121.793 27.6888 121.706 27.9058 121.533 28.0794C121.359 28.2313 121.153 28.3615 120.914 28.4701C120.697 28.5569 120.458 28.622 120.198 28.6654C119.938 28.7088 119.742 28.7413 119.612 28.763C119.525 28.7847 119.254 28.8173 118.798 28.8607C118.342 28.9041 117.778 28.9692 117.105 29.056C116.433 29.1428 115.684 29.2296 114.859 29.3164C114.035 29.4032 113.221 29.49 112.418 29.5768C111.615 29.6636 110.855 29.7504 110.139 29.8372C109.423 29.9023 108.826 29.9566 108.349 30C108.284 30.0217 108.186 30.0326 108.056 30.0326C108.056 27.1246 107.958 24.1949 107.763 21.2435C107.589 18.2704 107.155 15.3516 106.461 12.487ZM122.404 15.026L123.022 14.375L128.035 20.0065L131.16 13.7565L132.43 14.668L129.24 21.569C129.24 21.5907 129.24 21.645 129.24 21.7318C129.24 21.7969 129.25 21.8403 129.272 21.862C129.554 22.2526 129.956 22.806 130.477 23.5221C131.019 24.2166 131.572 24.9436 132.137 25.7031C132.701 26.4627 133.211 27.2005 133.667 27.9167C134.144 28.6328 134.448 29.1862 134.578 29.5768L133.341 30.1953L128.654 23.75C128.393 23.9236 128.111 24.2817 127.807 24.8242C127.525 25.3451 127.232 25.931 126.928 26.582C126.646 27.2114 126.386 27.819 126.147 28.4049C125.908 28.9909 125.713 29.4358 125.561 29.7396L124.259 29.3815L126.831 22.2526L122.404 15.026ZM136.296 21.569C136.209 21.6341 136.089 21.6558 135.938 21.6341C135.786 21.6124 135.645 21.5799 135.514 21.5365C135.384 21.4714 135.265 21.3954 135.156 21.3086C135.069 21.2001 135.026 21.0807 135.026 20.9505C135.026 20.2127 135.254 19.5399 135.71 18.9323C136.165 18.303 136.73 17.7713 137.402 17.3372C138.075 16.8815 138.791 16.5343 139.551 16.2956C140.31 16.0352 141.005 15.9049 141.634 15.9049C142.632 15.9049 143.533 16.0786 144.336 16.4258C145.161 16.7513 145.855 17.207 146.419 17.793C147.005 18.3789 147.45 19.0625 147.754 19.8437C148.079 20.625 148.242 21.4605 148.242 22.3503C148.264 23.4787 148.003 24.5095 147.461 25.4427C146.94 26.3759 146.246 27.1788 145.378 27.8516C144.531 28.5026 143.576 29.0017 142.513 29.349C141.471 29.6745 140.441 29.7938 139.421 29.707C139.464 30.4883 139.453 31.378 139.388 32.3763C139.323 33.3963 139.236 34.503 139.128 35.6966C139.019 36.8902 138.878 38.1489 138.704 39.4727C138.553 40.8181 138.39 42.1962 138.216 43.6068C138.216 43.6285 138.151 43.6393 138.021 43.6393C137.891 43.6393 137.75 43.6176 137.598 43.5742C137.467 43.5525 137.326 43.52 137.174 43.4766C137.044 43.4549 136.968 43.4549 136.947 43.4766C137.099 41.6753 137.218 39.8524 137.305 38.0078C137.391 36.1632 137.424 34.3077 137.402 32.4414C137.381 30.5968 137.283 28.763 137.109 26.9401C136.936 25.1172 136.664 23.3268 136.296 21.569ZM141.243 17.7279C140.831 17.7496 140.386 17.8147 139.909 17.9232C139.431 18.01 139.008 18.151 138.639 18.3464C138.27 18.5417 137.977 18.8021 137.76 19.1276C137.543 19.4531 137.467 19.8546 137.533 20.332C137.576 20.549 137.63 20.8637 137.695 21.276C137.782 21.6884 137.869 22.1549 137.956 22.6758C138.064 23.1966 138.162 23.7391 138.249 24.3034C138.357 24.8676 138.455 25.4102 138.542 25.931C138.65 26.4518 138.737 26.9293 138.802 27.3633C138.889 27.7756 138.954 28.0903 138.997 28.3073C139.258 28.2639 139.627 28.2205 140.104 28.1771C140.582 28.1337 141.092 28.0469 141.634 27.9167C142.177 27.7865 142.73 27.6128 143.294 27.3958C143.88 27.1571 144.423 26.8316 144.922 26.4193C145.421 26.0069 145.855 25.497 146.224 24.8893C146.615 24.26 146.875 23.4896 147.005 22.5781C147.005 21.7318 146.853 21.0048 146.549 20.3971C146.246 19.7895 145.833 19.2904 145.313 18.8997C144.792 18.4874 144.173 18.1944 143.457 18.0208C142.763 17.8255 142.025 17.7279 141.243 17.7279ZM150.448 4.70703C150.752 4.75043 151.012 4.83724 151.229 4.96745C151.468 5.07595 151.652 5.28212 151.783 5.58594C151.783 5.99826 151.793 6.57335 151.815 7.3112C151.859 8.02734 151.891 8.86285 151.913 9.81771C151.956 10.7726 152 11.8034 152.043 12.9102C152.086 14.0169 152.13 15.1345 152.173 16.263C152.217 17.3915 152.249 18.5091 152.271 19.6159C152.314 20.7227 152.347 21.7535 152.368 22.7083C152.412 23.6632 152.444 24.5095 152.466 25.2474C152.488 25.9852 152.51 26.5495 152.531 26.9401C152.531 26.9835 152.52 27.0595 152.499 27.168C152.499 27.2765 152.488 27.4067 152.466 27.5586C152.466 27.7105 152.455 27.8624 152.434 28.0143C152.434 28.1445 152.434 28.2422 152.434 28.3073C152.412 28.4375 152.401 28.6003 152.401 28.7956C152.401 28.9692 152.379 29.1428 152.336 29.3164C152.293 29.49 152.217 29.6528 152.108 29.8047C152.021 29.9349 151.869 30.0109 151.652 30.0326L151.099 29.349C151.077 29.3273 151.045 28.9258 151.001 28.1445C150.98 27.3416 150.936 26.3108 150.871 25.0521C150.828 23.7717 150.784 22.3394 150.741 20.7552C150.697 19.1493 150.643 17.5326 150.578 15.9049C150.535 14.2773 150.491 12.7148 150.448 11.2174C150.405 9.72005 150.372 8.42882 150.35 7.34375C150.35 7.25694 150.35 7.08333 150.35 6.82291C150.372 6.5625 150.383 6.30208 150.383 6.04166C150.405 5.75955 150.415 5.49913 150.415 5.26041C150.437 5 150.448 4.81554 150.448 4.70703ZM154.184 24.043C154.184 23.5438 154.227 22.9687 154.314 22.3177C154.401 21.645 154.542 20.9722 154.737 20.2995C154.932 19.6267 155.171 18.9648 155.453 18.3138C155.757 17.6628 156.115 17.0877 156.527 16.5885C156.94 16.0677 157.417 15.6554 157.96 15.3516C158.502 15.026 159.11 14.8633 159.783 14.8633C160.477 14.8633 161.117 15.102 161.703 15.5794C162.311 16.0569 162.821 16.6753 163.233 17.4349C163.667 18.1944 163.993 19.0408 164.21 19.974C164.427 20.9071 164.513 21.8186 164.47 22.7083C164.47 24.0104 164.22 25.1714 163.721 26.1914C163.222 27.2114 162.582 28.036 161.801 28.6654C161.041 29.2947 160.217 29.7179 159.327 29.9349C158.459 30.1519 157.634 30.0977 156.853 29.7721C156.093 29.4249 155.453 28.7847 154.932 27.8516C154.433 26.9184 154.184 25.6489 154.184 24.043ZM155.388 24.1732C155.453 25.497 155.681 26.5169 156.072 27.2331C156.462 27.9492 156.929 28.4266 157.471 28.6654C158.036 28.8824 158.643 28.8824 159.294 28.6654C159.945 28.4484 160.553 28.0686 161.117 27.526C161.681 26.9618 162.159 26.2674 162.549 25.4427C162.962 24.5964 163.19 23.6523 163.233 22.6107C163.276 21.8294 163.211 21.0699 163.038 20.332C162.886 19.5942 162.658 18.9431 162.354 18.3789C162.072 17.793 161.714 17.3372 161.28 17.0117C160.868 16.6645 160.39 16.4909 159.848 16.4909C159.327 16.4909 158.86 16.6211 158.448 16.8815C158.036 17.1419 157.656 17.5 157.309 17.9557C156.983 18.3898 156.701 18.8889 156.462 19.4531C156.224 20.0174 156.017 20.5816 155.844 21.1458C155.692 21.7101 155.572 22.2635 155.486 22.806C155.421 23.3268 155.388 23.7826 155.388 24.1732ZM165.569 17.3047C165.829 17.1962 166.057 17.1745 166.253 17.2396C166.448 17.3047 166.611 17.424 166.741 17.5977C166.871 17.7713 166.969 17.9774 167.034 18.2161C167.099 18.4332 167.153 18.6502 167.197 18.8672C167.479 18.3898 167.88 18.01 168.401 17.7279C168.944 17.424 169.519 17.2287 170.126 17.1419C170.734 17.0334 171.342 17.0117 171.949 17.0768C172.557 17.1202 173.067 17.2504 173.479 17.4674C173.913 17.6628 174.217 17.9449 174.391 18.3138C174.564 18.661 174.521 19.0733 174.26 19.5508C173.696 19.2253 173.099 18.9648 172.47 18.7695C171.862 18.5742 171.266 18.5091 170.68 18.5742C170.094 18.6393 169.551 18.8672 169.052 19.2578C168.553 19.6267 168.141 20.2235 167.815 21.0482C167.49 21.8728 167.283 22.9687 167.197 24.3359C167.132 25.6814 167.229 27.3633 167.49 29.3815H166.253C166.253 29.3815 166.231 29.2079 166.188 28.8607C166.166 28.4918 166.133 28.0143 166.09 27.4284C166.068 26.8424 166.025 26.1914 165.96 25.4753C165.916 24.7591 165.873 24.0321 165.829 23.2943C165.786 22.5564 165.743 21.8511 165.699 21.1784C165.678 20.4839 165.645 19.8872 165.602 19.388C165.602 19.3229 165.591 19.1927 165.569 18.9974C165.569 18.8021 165.569 18.5959 165.569 18.3789C165.569 18.1402 165.569 17.9232 165.569 17.7279C165.569 17.5326 165.569 17.3915 165.569 17.3047ZM175.62 22.3503C175.62 21.6992 175.761 20.9831 176.043 20.2018C176.325 19.3989 176.705 18.661 177.182 17.9883C177.681 17.2938 178.235 16.7187 178.842 16.263C179.472 15.7856 180.123 15.5469 180.796 15.5469C181.164 15.5469 181.523 15.6228 181.87 15.7747C182.239 15.9266 182.586 16.1328 182.911 16.3932C183.259 16.6319 183.563 16.9141 183.823 17.2396C184.105 17.5434 184.322 17.8689 184.474 18.2161C184.626 18.5634 184.702 18.8997 184.702 19.2253C184.724 19.5508 184.637 19.8329 184.441 20.0716L177.573 21.3411C177.486 21.3628 177.41 21.4714 177.345 21.6667C177.28 21.8403 177.226 22.0681 177.182 22.3503C177.139 22.6324 177.095 22.947 177.052 23.2943C177.03 23.6198 177.009 23.9453 176.987 24.2708C176.965 24.5747 176.954 24.8568 176.954 25.1172C176.954 25.3559 176.954 25.5404 176.954 25.6706C176.954 26.2782 177.095 26.7773 177.378 27.168C177.681 27.5369 178.061 27.819 178.517 28.0143C178.973 28.2096 179.483 28.3398 180.047 28.4049C180.633 28.4701 181.208 28.5026 181.772 28.5026C182.336 28.5026 182.868 28.4809 183.367 28.4375C183.866 28.3941 184.279 28.3724 184.604 28.3724C184.604 28.4592 184.572 28.5569 184.507 28.6654C184.441 28.7739 184.365 28.8824 184.279 28.9909C184.192 29.0777 184.105 29.1645 184.018 29.2513C183.931 29.3164 183.877 29.3598 183.855 29.3815C183.682 29.4249 183.411 29.49 183.042 29.5768C182.694 29.6419 182.315 29.707 181.902 29.7721C181.512 29.8372 181.143 29.8915 180.796 29.9349C180.448 29.9783 180.21 30 180.079 30C179.407 30.1302 178.821 30.1194 178.322 29.9674C177.822 29.8155 177.399 29.5551 177.052 29.1862C176.705 28.8173 176.423 28.3724 176.206 27.8516C175.989 27.309 175.826 26.7339 175.717 26.1263C175.609 25.5187 175.544 24.8893 175.522 24.2383C175.522 23.5872 175.555 22.9579 175.62 22.3503ZM180.34 16.7839C180.145 16.7839 179.884 16.8924 179.559 17.1094C179.255 17.3047 178.962 17.5651 178.68 17.8906C178.419 18.1944 178.191 18.5308 177.996 18.8997C177.822 19.247 177.768 19.5508 177.833 19.8112C178.398 19.8763 178.984 19.8655 179.591 19.7786C180.199 19.6918 180.752 19.5616 181.251 19.388C181.75 19.1927 182.163 18.9757 182.488 18.737C182.814 18.4766 182.966 18.2161 182.944 17.9557C182.944 17.6953 182.738 17.4674 182.326 17.2721C181.935 17.0551 181.273 16.8924 180.34 16.7839Z" fill="white"></path><g clip-path="url(#clip0_5_245)"><path d="M89.274 52.5452C91.3507 52.9577 92.3593 54.4595 93.1089 55.9636C94.1238 58.0697 94.9242 60.3074 95.4655 62.5474C97.689 72.9317 95.631 82.6216 89.9813 91.5244C88.5369 93.7828 86.7453 95.8717 84.9137 98.2632C87.641 98.972 90.4795 97.9095 93.335 98.4876C92.6986 99.5728 91.7071 99.7115 90.8882 99.8486C87.5263 100.398 84.1208 100.904 80.7144 101.324C79.0758 101.512 78.4233 101.043 78.4071 99.4891C78.3303 96.2518 79.2495 93.3075 81.1657 90.7425C81.2511 90.6554 81.5102 90.653 81.8982 90.6062C83.3039 92.9246 80.518 94.8932 81.2775 97.347C84.9232 95.0251 87.2194 91.6363 89.1684 88.0781C91.202 84.3463 92.8457 80.4887 93.536 76.2945C94.2273 72.1866 94.0124 68.1302 93.4513 63.9907C92.9766 59.8505 91.5129 56.1079 89.274 52.5452Z" fill="white"></path></g><defs><clipPath id="clip0_5_245"><rect width="35.1472" height="42.6376" fill="white" transform="translate(89.8086 52) rotate(44.4373)"></rect></clipPath></defs></svg> 