<?xml version="1.0" encoding="UTF-8"?> <svg xmlns="http://www.w3.org/2000/svg" width="249" height="135" viewBox="0 0 249 135" fill="none"><g clip-path="url(#clip0_5_216)"><path d="M80.1953 113.786C80.1953 113.786 81.6722 114.379 82.5583 113.786C83.4444 113.192 84.7736 111.264 84.7736 111.264" stroke="white" stroke-width="1.15302" stroke-miterlimit="10" stroke-linecap="round"></path><path d="M100.133 111.56C100.133 111.56 98.656 120.758 96.8838 124.022C95.3862 126.778 93.6346 128.472 91.2717 128.176C88.9087 127.879 86.8411 126.396 85.9549 123.725C85.0688 121.055 84.7734 115.714 84.7734 111.264" stroke="white" stroke-width="1.15302" stroke-linecap="round" stroke-linejoin="round"></path><path d="M122.139 109.929C122.139 109.929 123.32 114.973 122.434 119.127C121.982 121.239 121.253 122.984 119.481 122.984C117.708 122.984 115.345 120.61 114.164 118.83C112.982 117.05 112.982 116.456 110.915 113.786C110.147 112.792 108.602 111.709 106.806 112.006C105.01 112.302 102.94 113.192 101.758 117.05C101.017 119.474 100.281 122.984 100.281 124.764" stroke="white" stroke-width="1.15302" stroke-miterlimit="10" stroke-linecap="round"></path><path d="M147.834 106.071C147.834 106.071 149.311 106.071 148.425 112.895C148.062 115.693 144.29 119.423 141.336 119.423C138.382 119.423 135.724 114.676 134.838 110.819C133.952 106.961 133.066 100.434 133.656 97.7636C134.247 95.0933 135.502 99.2352 135.724 101.027C136.019 103.401 136.061 105.84 135.756 109.095C135.429 112.599 135.133 115.269 133.464 119.423C132.36 122.173 130.703 122.983 129.226 122.983C127.749 122.983 125.681 122.687 124.5 119.72C123.764 117.871 122.391 112.154 122.137 109.928" stroke="white" stroke-width="1.15302" stroke-miterlimit="10" stroke-linecap="round"></path><path d="M172.055 109.336C172.055 109.336 172.055 114.38 169.396 117.347C167.016 120.002 163.784 120.611 162.307 117.94C160.831 115.27 160.24 109.929 163.194 107.259C166.147 104.589 168.215 106.369 168.806 107.259C169.396 108.149 170.578 109.929 169.987 113.49C169.618 115.718 166.738 119.721 163.194 121.204C159.649 122.688 155.532 123.002 152.856 120.314C150.493 117.94 149.311 115.863 148.13 112.303C146.948 108.742 146.653 105.775 147.834 106.072" stroke="white" stroke-width="1.15302" stroke-miterlimit="10" stroke-linecap="round"></path><path d="M201.001 100.434C201.001 100.434 201.887 109.632 198.94 114.139C197.123 116.916 196.275 117.049 194.208 117.346C192.746 117.557 190.663 116.753 189.186 114.676C188.034 113.056 187.414 110.522 186.528 107.555C185.642 104.588 184.756 100.137 184.756 95.9834C184.756 91.8296 185.051 90.9395 185.642 90.9395C186.233 90.9395 186.528 94.1884 186.528 97.1702C186.528 100.152 186.528 103.104 185.347 106.665C184.165 110.225 182.712 114.059 180.916 115.863C179.439 117.346 178.258 118.236 176.19 117.939C174.122 117.643 172.35 112.005 172.055 109.632" stroke="white" stroke-width="1.15302" stroke-miterlimit="10" stroke-linecap="round"></path><path d="M211.043 98.9512C211.043 98.9512 212.224 106.369 211.338 109.632C210.124 114.107 208.709 114.676 207.203 114.676C204.84 114.676 203.954 113.193 203.068 110.523C202.181 107.852 201.062 103.105 201 100.435" stroke="white" stroke-width="1.15302" stroke-miterlimit="10" stroke-linecap="round"></path><path d="M221.086 96.2803C221.086 96.2803 220.2 110.522 219.018 113.192C218.51 114.344 217.373 113.999 216.95 113.489C215.474 111.709 211.374 100.775 211.043 98.9506" stroke="white" stroke-width="1.15302" stroke-miterlimit="10" stroke-linecap="round"></path><path d="M235.707 113.044C234.266 113.504 232.31 113.563 231.424 112.896C230.243 112.006 228.154 109.929 228.018 105.478C227.882 101.028 228.47 98.9506 230.243 97.4671C232.015 95.9836 233.849 96.1349 234.673 97.1704C235.855 98.6539 235.559 100.731 235.264 101.621C234.8 103.021 233.787 105.181 231.129 105.478C229.368 105.674 226.993 103.995 225.812 102.511C224.63 101.028 221.972 98.0605 221.086 96.2803" stroke="white" stroke-width="1.15302" stroke-miterlimit="10" stroke-linecap="round"></path><path d="M242.407 105.502C241.455 107.967 240.055 110.276 238.156 112.139C237.057 113.293 235.418 113.943 233.835 113.78C233.755 113.747 233.501 113.682 233.637 113.578C233.761 113.513 233.923 113.471 233.92 113.4C234.621 112.833 235.501 112.611 236.224 112.086C237.941 111.112 239.391 109.635 240.581 108.027C241.204 107.211 241.774 106.347 242.297 105.454C242.33 105.395 242.433 105.436 242.404 105.505L242.407 105.502Z" fill="white"></path><path d="M100.281 111.412C100.281 111.412 100.556 122.171 100.281 124.764" stroke="white" stroke-width="0.864769" stroke-miterlimit="10" stroke-linecap="round"></path><path d="M193.914 98.6543C192.511 100.227 190.399 100.9 188.432 101.381C186.441 101.856 184.427 101.876 182.395 101.918C183.207 101.283 184.255 100.989 185.215 100.675C188.107 99.7936 190.99 99.4376 193.914 98.6543Z" fill="white"></path><path d="M127.453 107.258C132.3 106.238 137.227 104.647 142.222 105.478C140.063 105.896 137.062 106.511 134.923 106.864C132.472 107.238 129.94 107.674 127.453 107.258Z" fill="white"></path><path d="M199.376 94.352C200.097 94.5152 200.307 94.7288 200.88 94.628C201.438 94.5538 201.577 94.0405 201.739 93.4619C202.431 94.1621 202.174 95.3786 201.228 95.708C200.224 96.1322 199.176 95.4647 199.376 94.352Z" fill="white"></path><path d="M145.768 97.7637C145.473 98.9505 145.473 99.5439 146.064 99.8406C146.654 100.137 147.219 99.5439 147.083 98.8021" stroke="white" stroke-width="1.44128" stroke-miterlimit="10" stroke-linecap="round"></path><path d="M120.346 101.722C120.074 102.072 119.631 102.389 119.194 102.395C118.795 102.431 118.553 102.033 118.29 101.802C117.752 101.339 117.38 100.671 117.241 99.983C117.22 99.894 117.315 99.8139 117.398 99.8495C117.711 99.9711 117.994 100.093 118.275 100.167C118.671 100.268 119.052 100.387 119.459 100.297C119.592 100.28 119.705 100.312 119.805 100.41C120.021 100.609 120.216 100.989 120.316 101.3C120.357 101.428 120.446 101.603 120.343 101.719L120.346 101.722Z" fill="white"></path><path d="M84.5737 104.81C84.5176 104.383 84.4585 104.113 84.556 103.778C84.5914 103.668 84.6682 103.591 84.7864 103.549C84.9045 103.505 85.0345 103.466 85.1408 103.401C85.3033 103.294 85.643 103.098 85.8143 103.009C86.1126 102.882 86.3105 102.707 86.6915 102.722C86.7152 102.722 86.7329 102.745 86.7299 102.769C86.7299 102.769 86.7299 102.775 86.7299 102.778L86.6945 102.903C86.5734 103.318 86.4021 103.938 86.2219 104.33C86.1156 104.573 86.1096 104.929 85.8143 105.042C85.4805 105.202 85.0168 105.16 84.6771 104.965C84.621 104.932 84.5885 104.876 84.5796 104.816L84.5737 104.81Z" fill="white"></path><path d="M11.5819 23.2469C12.663 20.5083 13.7056 17.5086 14.1782 15.132C15.3597 9.19796 15.0644 6.23093 14.4736 6.23093C13.8829 6.23093 13.2921 13.0551 13.2921 15.132C13.2921 17.209 12.9967 24.0331 14.4736 27.8903C15.5665 30.7416 16.8366 30.5606 17.4274 30.5606C18.0181 30.5606 20.3811 29.3738 21.858 26.1101C23.3348 22.8463 24.8117 18.9892 25.1071 14.5386C25.4024 10.0881 25.6978 5.34082 25.6978 5.34082" stroke="white" stroke-width="1.15302" stroke-linecap="round" stroke-linejoin="round"></path><path d="M8.21537 30.8309C8.69387 29.5047 9.66861 26.8432 10.1589 25.5199C10.4838 24.6417 10.7083 23.719 11.1396 22.8823C11.5708 22.0278 12.0286 21.2088 12.643 20.4493C12.6637 20.4226 12.705 20.4196 12.7316 20.4404C12.77 21.8853 12.3122 23.3451 11.686 24.6387C10.5902 26.7335 9.53864 28.8519 8.3217 30.8784C8.28921 30.9378 8.18878 30.8932 8.21537 30.828V30.8309Z" fill="white"></path><path d="M53.4612 24.0331C52.2 23.9975 49.837 23.778 49.0306 23.4397C45.4862 21.9562 45.0756 20.176 45.4271 18.0991C45.7786 16.0221 47.2584 13.3518 48.1445 12.4617C49.0306 11.5716 50.2121 10.6815 50.8029 11.2749C51.3936 11.8683 51.689 13.9452 50.2121 16.0221C48.7353 18.0991 44.1836 23.0243 42.9135 23.9738C41.6433 24.9232 39.5787 26.11 37.8064 24.9232C36.0342 23.7364 36.0342 21.9562 36.0342 20.7694C36.0342 19.5826 36.1051 18.0842 35.597 15.8886C35.1481 13.9452 34.262 13.6485 33.3758 13.6485C32.4897 13.6485 30.7175 14.2419 29.536 16.0221C28.3545 17.8024 25.1054 22.8463 25.6961 26.7035C26.2869 30.5606 26.8776 25.8133 26.8776 23.4397C26.8776 21.0661 25.6961 8.90126 25.6961 5.34082" stroke="white" stroke-width="1.15302" stroke-miterlimit="10" stroke-linecap="round"></path><path d="M60.8614 22.9028C59.2427 23.4725 57.5827 23.9145 55.8961 24.235C55.0514 24.3893 54.2007 24.6296 53.3293 24.5851C52.4462 24.5465 51.563 24.41 50.7507 24.0243C50.7005 24.0036 50.7035 23.9234 50.7566 23.9086C51.6014 23.6505 52.4196 23.5199 53.2732 23.4012C54.5227 23.2499 55.7898 23.3597 57.0392 23.1936C58.3093 23.0927 59.5706 22.9532 60.8348 22.7871C60.8998 22.7752 60.9293 22.8791 60.8643 22.9028H60.8614Z" fill="white"></path><path d="M7.67969 12.7587C9.85659 12.1653 12.0069 11.6135 14.2311 11.2663C16.4552 10.9459 18.7208 10.6165 20.9715 10.9785C18.7887 11.5541 16.6413 12.0911 14.4172 12.4383C12.193 12.7558 9.93634 13.0999 7.67969 12.7587Z" fill="white"></path><path d="M66.9693 44.5617L60.5361 50.2644C58.2765 47.1045 55.9785 45.526 53.6361 45.526C52.496 45.526 51.5626 45.8346 50.839 46.4458C50.1153 47.06 49.752 47.7513 49.752 48.5168C49.752 49.2823 50.0119 50.0151 50.5288 50.6976C51.2318 51.6114 53.3555 53.5756 56.9 56.5871C60.2141 59.3702 62.2256 61.1267 62.9286 61.8536C64.689 63.6398 65.9385 65.3488 66.6739 66.9806C67.4065 68.6125 67.7757 70.3927 67.7757 72.3243C67.7757 76.0865 66.4819 79.1929 63.8915 81.6407C61.3011 84.0915 57.9279 85.3199 53.7661 85.3199C50.514 85.3199 47.6814 84.5188 45.2712 82.9195C42.858 81.3203 40.7933 78.8043 39.0742 75.3773L46.3759 70.9505C48.5705 75.0005 51.0989 77.03 53.9581 77.03C55.4468 77.03 56.7021 76.5938 57.7182 75.7215C58.7313 74.8492 59.2394 73.8404 59.2394 72.6981C59.2394 71.6597 58.8583 70.6212 58.0904 69.5827C57.3224 68.5443 55.6329 66.9539 53.0247 64.8147C48.0536 60.7439 44.8429 57.5989 43.3896 55.3884C41.9393 53.175 41.2127 50.9676 41.2127 48.766C41.2127 45.5883 42.4208 42.8616 44.834 40.5859C47.2443 38.3102 50.2216 37.1738 53.7661 37.1738C56.0434 37.1738 58.2115 37.7049 60.2732 38.7642C62.3349 39.8234 64.565 41.7549 66.9664 44.5617" fill="white"></path><path d="M119.149 46.3835L113.073 52.1989C108.941 47.8107 104.292 45.618 99.1227 45.618C94.763 45.618 91.0885 47.1164 88.1023 50.1101C85.1161 53.1068 83.6244 56.7978 83.6244 61.1861C83.6244 64.2421 84.2831 66.9569 85.6064 69.3276C86.9297 71.6983 88.7994 73.5586 91.2185 74.9116C93.6347 76.2616 96.3225 76.938 99.2792 76.938C101.799 76.938 104.103 76.4633 106.191 75.5168C108.276 74.5733 110.571 72.8495 113.07 70.3542L118.96 76.5286C115.59 79.8339 112.403 82.1244 109.405 83.4032C106.407 84.682 102.983 85.3199 99.1375 85.3199C92.0426 85.3199 86.2355 83.059 81.7163 78.5432C77.1971 74.0215 74.9375 68.2328 74.9375 61.1683C74.9375 56.599 75.9654 52.5342 78.0242 48.9827C80.0829 45.4311 83.0307 42.5739 86.8676 40.4139C90.7045 38.2509 94.8368 37.1709 99.2615 37.1709C103.025 37.1709 106.649 37.969 110.137 39.5653C113.62 41.1616 116.627 43.4343 119.152 46.3806" fill="white"></path><path d="M124.664 38.3281H149.889V46.9266H141.574V84.1688H132.763V46.9266H124.664V38.3281Z" fill="white"></path></g><defs><clipPath id="clip0_5_216"><rect width="249" height="135" fill="white"></rect></clipPath></defs></svg> 