<?xml version="1.0" encoding="utf-8"?>
<!-- Generator: Adobe Illustrator 22.1.0, SVG Export Plug-In . SVG Version: 6.00 Build 0)  -->
<svg version="1.1" id="Layer_1" xmlns="http://www.w3.org/2000/svg" xmlns:xlink="http://www.w3.org/1999/xlink" x="0px" y="0px"
	 viewBox="0 0 512 512" style="enable-background:new 0 0 512 512;" xml:space="preserve">
<style type="text/css">
	.st0{fill:#FFFFFF;}
</style>
<title>Social-linkedin</title>
<desc>Created with Sketch.</desc>
<g>
	<circle class="st0" cx="256" cy="256" r="66.6"/>
	<g>
		<path class="st0" d="M172.4,55C107.8,55,55,107.8,55,172.4v167.1C55,404.2,107.8,457,172.4,457h167.1
			c64.6,0,117.4-52.8,117.4-117.4V172.4C457,107.8,404.2,55,339.6,55H172.4z M256,359.5c-57.2,0-103.5-46.3-103.5-103.5
			S198.8,152.5,256,152.5S359.5,198.8,359.5,256S313.2,359.5,256,359.5z M362.9,172.4c-13.7,0-24.8-11.1-24.8-24.8
			s11.1-24.8,24.8-24.8c13.7,0,24.8,11.1,24.8,24.8S376.6,172.4,362.9,172.4z"/>
	</g>
</g>
</svg>
