<?xml version="1.0" encoding="UTF-8" standalone="no"?>
<svg width="512px" height="512px" viewBox="0 0 512 512" version="1.1" xmlns="http://www.w3.org/2000/svg" xmlns:xlink="http://www.w3.org/1999/xlink">
    <!-- Generator: Sketch 3.7 (28169) - http://www.bohemiancoding.com/sketch -->
    <title>Social-twitter</title>
    <desc>Created with Sketch.</desc>
    <defs></defs>
    <g id="Page-1" stroke="none" stroke-width="1" fill="none" fill-rule="evenodd">
        <g id="Social-twitter" fill="#FFFFFF">
            <g id="TwitterLogo_#55acee" transform="translate(-10.000000, 48.000000)">
                <path d="M490.033713,47.2489868 C472.003613,55.2630445 452.627394,60.6794049 432.29043,63.1154197 C453.048616,50.6443172 468.988738,30.8975067 476.495454,7.36912452 C457.07084,18.9150444 435.554454,27.3009716 412.654309,31.8208929 C394.314117,12.2375612 368.185797,0 339.270241,0 C283.745992,0 238.730788,45.1147791 238.730788,100.760472 C238.730788,108.657759 239.621628,116.348452 241.335196,123.722966 C157.779061,119.52102 83.6995291,79.4058198 34.1136166,18.444369 C25.459742,33.3263357 20.5018677,50.6353349 20.5018677,69.1012615 C20.5018677,104.058793 38.2523482,134.900609 65.2284899,152.969516 C48.7470532,152.446742 33.2460782,147.914246 19.6898948,140.367271 C19.6827251,140.787645 19.6827251,141.209816 19.6827251,141.633783 C19.6827251,190.454682 54.3376569,231.180682 100.329738,240.436101 C91.892748,242.739177 83.0112342,243.96976 73.8411385,243.96976 C67.3632796,243.96976 61.0646642,243.339199 54.9273679,242.16251 C67.7199741,282.195072 104.848466,311.326648 148.841982,312.140449 C114.434406,339.164764 71.084374,355.273721 23.9827758,355.273721 C15.8684241,355.273721 7.86520331,354.797656 0,353.867084 C44.4918133,382.456125 97.3381645,399.13636 154.113533,399.13636 C339.035432,399.13636 440.157426,245.597363 440.157426,112.44472 C440.157426,108.075702 440.060635,103.730039 439.867052,99.4095257 C459.508551,85.2030321 476.554604,67.4556939 490.033713,47.2489868" id="Fill-1"></path>
            </g>
        </g>
    </g>
</svg>