<?xml version="1.0" encoding="UTF-8" standalone="no"?>
<svg width="512px" height="512px" viewBox="0 0 512 512" version="1.1" xmlns="http://www.w3.org/2000/svg" xmlns:xlink="http://www.w3.org/1999/xlink">
    <!-- Generator: Sketch 3.7 (28169) - http://www.bohemiancoding.com/sketch -->
    <title>Social-linkedin</title>
    <desc>Created with Sketch.</desc>
    <defs></defs>
    <g id="Page-1" stroke="none" stroke-width="1" fill="none" fill-rule="evenodd">
        <g id="Social-linkedin" fill="#FFFFFF">
            <g id="Logo-2C-PMS-2in-R" transform="translate(56.000000, 56.000000)">
                <path d="M370.676444,0 L29.8042222,0 C13.5153333,0 0.282,12.9111111 0.282,28.8305556 L0.282,371.136111 C0.282,387.069444 13.5153333,400 29.8042222,400 L370.676444,400 C386.993111,400 400.287556,387.069444 400.287556,371.136111 L400.287556,28.8305556 C400.287556,12.9111111 386.993111,0 370.676444,0 Z M156.126444,149.961111 L213.040333,149.961111 L213.040333,176.041667 L213.829222,176.041667 C221.745889,161.036111 241.101444,145.211111 269.962556,145.211111 C330.040333,145.211111 341.132,184.747222 341.132,236.144444 L341.132,340.852778 L281.845889,340.852778 L281.845889,248.022222 C281.845889,225.875 281.437556,197.402778 251.015333,197.402778 C220.140333,197.402778 215.412556,221.519444 215.412556,246.419444 L215.412556,340.852778 L156.126444,340.852778 L156.126444,149.961111 Z M89.2625556,55.0694444 C108.234778,55.0694444 123.645889,70.4833333 123.645889,89.4583333 C123.645889,108.447222 108.234778,123.866667 89.2625556,123.866667 C70.2514444,123.866667 54.8597778,108.447222 54.8597778,89.4583333 C54.8597778,70.4833333 70.2514444,55.0694444 89.2625556,55.0694444 Z M59.5875556,340.852778 L118.915333,340.852778 L118.915333,149.961111 L59.5875556,149.961111 L59.5875556,340.852778 Z" id="Fill-10"></path>
            </g>
        </g>
    </g>
</svg>