<?xml version="1.0" encoding="UTF-8" standalone="no"?>
<svg width="512px" height="512px" viewBox="0 0 512 512" version="1.1" xmlns="http://www.w3.org/2000/svg" xmlns:xlink="http://www.w3.org/1999/xlink">
    <!-- Generator: Sketch 3.7 (28169) - http://www.bohemiancoding.com/sketch -->
    <title>Social-youtube</title>
    <desc>Created with Sketch.</desc>
    <defs>
        <polygon id="path-1" points="0.0300587084 360.173464 511.724462 360.173464 511.724462 0.289064579 0.0300587084 0.289064579"></polygon>
    </defs>
    <g id="Page-1" stroke="none" stroke-width="1" fill="none" fill-rule="evenodd">
        <g id="Social-youtube">
            <g id="YouTube_light_color_icon" transform="translate(0.000000, 76.000000)">
                <mask id="mask-2" fill="white">
                    <use xlink:href="#path-1"></use>
                </mask>
                <g id="Clip-2"></g>
                <polyline id="Fill-1" fill="#DEDED9" mask="url(#mask-2)" points="324.266834 183.812008 203.009002 102.841362 341.279061 174.982262 324.266834 183.812008"></polyline>
                <path d="M203.032548,246.622184 L203.009002,102.841362 L341.279061,174.982262 L203.032548,246.622184 L203.032548,246.622184 Z M506.614481,77.9332133 C506.614481,77.9332133 501.614716,42.6698395 486.270748,27.1410098 C466.811742,6.75970254 445.000141,6.65850489 434.997605,5.46567515 C363.389245,0.289064579 255.972947,0.289064579 255.972947,0.289064579 L255.750513,0.289064579 C255.750513,0.289064579 148.33672,0.289064579 76.7258552,5.46567515 C66.722818,6.65850489 44.9192329,6.75970254 25.4532133,27.1410098 C10.1102466,42.6698395 5.11749511,77.9332133 5.11749511,77.9332133 C5.11749511,77.9332133 0,119.344094 0,160.754474 L0,199.576798 C0,240.986677 5.11749511,282.397057 5.11749511,282.397057 C5.11749511,282.397057 10.1102466,317.660932 25.4532133,333.189761 C44.9192329,353.571569 70.4891742,352.92681 81.8779178,355.062982 C122.816376,358.98865 255.862231,360.203523 255.862231,360.203523 C255.862231,360.203523 363.389245,360.041706 434.997605,354.865597 C445.000141,353.672266 466.811742,353.571569 486.270748,333.189761 C501.614716,317.660932 506.614481,282.397057 506.614481,282.397057 C506.614481,282.397057 511.724462,240.986677 511.724462,199.576798 L511.724462,160.754474 C511.724462,119.344094 506.614481,77.9332133 506.614481,77.9332133 L506.614481,77.9332133 Z" id="Fill-3" fill="#FFFFFF" mask="url(#mask-2)"></path>
            </g>
        </g>
    </g>
</svg>