<?xml version="1.0" encoding="UTF-8" standalone="no"?>
<svg width="512px" height="512px" viewBox="0 0 512 512" version="1.1" xmlns="http://www.w3.org/2000/svg" xmlns:xlink="http://www.w3.org/1999/xlink">
    <!-- Generator: Sketch 3.7 (28169) - http://www.bohemiancoding.com/sketch -->
    <title>Social-facebook</title>
    <desc>Created with Sketch.</desc>
    <defs></defs>
    <g id="Page-1" stroke="none" stroke-width="1" fill="none" fill-rule="evenodd">
        <g id="Social-facebook" fill="#FFFFFF">
            <g id="FB-fLogo-printpackaging" transform="translate(56.000000, 56.000000)">
                <path d="M377.902589,0.0238655815 L22.0974113,0.0238655815 C9.90376288,0.0238655815 0.0238655815,9.90376288 0.0238655815,22.0974113 L0.0238655815,377.902589 C0.0238655815,390.09324 9.90376288,399.976134 22.0974113,399.976134 L213.650233,399.976134 L213.650233,245.094171 L161.529391,245.094171 L161.529391,184.732839 L213.650233,184.732839 L213.650233,140.218604 C213.650233,88.5593141 245.202066,60.4301541 291.285276,60.4301541 C313.358822,60.4301541 332.331881,62.0740563 337.860008,62.8083426 L337.860008,116.794871 L305.899072,116.809856 C280.835932,116.809856 275.983648,128.718781 275.983648,146.194796 L275.983648,184.732839 L335.756053,184.732839 L327.972618,245.094171 L275.983648,245.094171 L275.983648,399.976134 L377.902589,399.976134 C390.09324,399.976134 399.976134,390.09324 399.976134,377.902589 L399.976134,22.0974113 C399.976134,9.90376288 390.09324,0.0238655815 377.902589,0.0238655815" id="Fill-14"></path>
            </g>
        </g>
    </g>
</svg>