<svg width="191" height="180" viewBox="0 0 191 180" fill="none" xmlns="http://www.w3.org/2000/svg">
<path d="M86.8168 96.3985C90.2267 94.3926 87.0173 88.9768 83.6074 91.1833C80.1975 93.1891 83.4068 98.4043 86.8168 96.3985Z" fill="#2C463F"/>
<path d="M77.9886 71.5254C81.3986 69.5195 78.1892 64.1038 74.7793 66.3102C71.3694 68.1155 74.5787 73.5312 77.9886 71.5254Z" fill="#2C463F"/>
<path d="M138.368 79.1475C141.777 77.1416 138.568 71.7259 135.158 73.9323C131.748 75.9381 134.958 81.3539 138.368 79.1475Z" fill="#2C463F"/>
<path d="M133.555 124.278C136.965 122.272 133.756 116.857 130.346 119.063C126.936 121.069 130.145 126.284 133.555 124.278Z" fill="#2C463F"/>
<path d="M115.7 79.1475C119.109 77.1416 115.9 71.7259 112.49 73.9323C109.08 75.9381 112.29 81.1533 115.7 79.1475Z" fill="#2C463F"/>
<path d="M154.213 63.1006C157.623 61.0948 154.413 55.679 151.003 57.8854C147.794 59.8913 150.803 65.1064 154.213 63.1006Z" fill="#2C463F"/>
<path d="M189.516 89.3779C192.926 87.3721 189.717 81.9563 186.307 84.1628C182.897 86.1686 186.106 91.3838 189.516 89.3779Z" fill="#2C463F"/>
<path d="M159.223 111.844C162.633 109.838 159.424 104.422 156.014 106.629C152.604 108.634 155.813 114.05 159.223 111.844Z" fill="#2C463F"/>
<path d="M169.66 78.7481C173.07 76.7422 169.861 71.3265 166.451 73.5329C163.041 75.3381 166.251 80.7539 169.66 78.7481Z" fill="#2C463F"/>
<path d="M118.102 103.419C121.512 101.413 118.302 95.9974 114.892 98.2038C111.483 100.009 114.491 105.425 118.102 103.419Z" fill="#2C463F"/>
<path d="M104.063 54.4758C107.473 52.47 104.264 47.0542 100.854 49.2607C97.4438 51.2665 100.653 56.4816 104.063 54.4758Z" fill="#2C463F"/>
<path d="M146.193 29.4033C149.603 27.3974 146.394 21.9817 142.984 24.1882C139.774 25.9934 142.783 31.4091 146.193 29.4033Z" fill="#2C463F"/>
<path d="M192.727 13.7578C196.137 11.752 192.928 6.33622 189.518 8.54264C186.108 10.5485 189.317 15.7637 192.727 13.7578Z" fill="#2C463F"/>
<path d="M182.697 60.294C186.107 58.2881 182.898 52.8724 179.488 55.0788C176.278 57.0846 179.287 62.2998 182.697 60.294Z" fill="#2C463F"/>
<path d="M129.543 61.8975C132.953 59.8916 129.744 54.4759 126.334 56.6823C122.924 58.6881 126.133 63.9033 129.543 61.8975Z" fill="#2C463F"/>
<path d="M53.3206 35.0186C56.7305 33.0127 53.5211 27.597 50.1112 29.8034C46.7013 31.6086 49.7101 37.0244 53.3206 35.0186Z" fill="#2C463F"/>
<path d="M105.067 5.73439C108.477 3.72855 105.267 -1.68722 101.857 0.519203C98.4475 2.32446 101.657 7.74023 105.067 5.73439Z" fill="#2C463F"/>
<path d="M179.086 36.4228C182.496 34.417 179.287 29.0013 175.877 31.2077C172.467 33.0129 175.676 38.4286 179.086 36.4228Z" fill="#2C463F"/>
<path d="M102.262 31.4091C105.672 29.4033 102.463 23.9876 99.0527 26.194C95.6428 28.1998 98.8521 33.415 102.262 31.4091Z" fill="#2C463F"/>
<path d="M81.197 13.7578C84.6069 11.752 81.3976 6.33622 77.9877 8.54264C74.7783 10.5485 77.7871 15.7637 81.197 13.7578Z" fill="#2C463F"/>
<path d="M82.0004 35.4199C85.4103 33.414 82.2009 27.9983 78.791 30.2048C75.3811 32.01 78.5904 37.4257 82.0004 35.4199Z" fill="#2C463F"/>
<path d="M68.1605 100.41C71.5704 98.4043 68.3611 92.9886 64.9512 95.195C61.5413 97.2008 64.7506 102.617 68.1605 100.41Z" fill="#2C463F"/>
<path d="M86.0121 173.623C89.422 171.617 86.2127 166.201 82.8027 168.408C79.3928 170.414 82.6022 175.629 86.0121 173.623Z" fill="#2C463F"/>
<path d="M29.0471 179.039C32.457 177.033 29.2477 171.617 25.8378 173.824C22.4279 175.629 25.4366 181.045 29.0471 179.039Z" fill="#2C463F"/>
<path d="M62.947 145.14C66.3569 143.134 63.1476 137.718 59.7377 139.924C56.5283 141.93 59.5371 147.146 62.947 145.14Z" fill="#2C463F"/>
<path d="M89.6189 136.715C93.0288 134.709 89.8195 129.293 86.4096 131.5C83.2002 133.506 86.2089 138.721 89.6189 136.715Z" fill="#2C463F"/>
<path d="M134.754 156.773C138.164 154.768 134.955 149.352 131.545 151.558C128.135 153.364 131.344 158.779 134.754 156.773Z" fill="#2C463F"/>
<path d="M104.871 121.671C108.281 119.665 105.072 114.249 101.662 116.456C98.2522 118.462 101.462 123.677 104.871 121.671Z" fill="#2C463F"/>
<path d="M60.9379 123.879C64.3478 121.873 61.1384 116.457 57.7285 118.664C54.3186 120.469 57.5279 125.885 60.9379 123.879Z" fill="#2C463F"/>
<path d="M19.223 61.2969C22.6329 59.2911 19.4236 53.8753 16.0137 56.0817C12.6037 58.0875 15.8131 63.3027 19.223 61.2969Z" fill="#2C463F"/>
<path d="M4.57593 92.5866C7.98585 90.5808 4.7765 85.1651 1.36657 87.3715C-1.84276 89.1768 1.166 94.5925 4.57593 92.5866Z" fill="#2C463F"/>
<path d="M36.2738 92.3867C39.6837 90.3809 36.4744 84.9651 33.0644 87.1715C29.6545 89.1774 32.8639 94.3926 36.2738 92.3867Z" fill="#2C463F"/>
<path d="M25.4339 134.911C28.8439 132.905 25.6345 127.49 22.2246 129.696C18.8147 131.702 22.024 136.917 25.4339 134.911Z" fill="#2C463F"/>
<path d="M55.1253 60.8945C58.5353 58.8887 55.3259 53.4729 51.916 55.6794C48.5061 57.6852 51.7154 62.9004 55.1253 60.8945Z" fill="#2C463F"/>
<path d="M14.4027 20.3769C17.8126 18.3711 14.6033 12.9554 11.1934 15.1618C7.78344 17.1676 10.9928 22.3828 14.4027 20.3769Z" fill="#2C463F"/>
<path d="M52.516 8.34176C55.9259 6.33592 52.7166 0.920208 49.3066 3.12663C45.8967 5.13247 49.106 10.3476 52.516 8.34176Z" fill="#2C463F"/>
</svg>
