<svg width="121" height="17" viewBox="0 0 121 17" fill="none" xmlns="http://www.w3.org/2000/svg">
<path fill-rule="evenodd" clip-rule="evenodd" d="M8.92962 10.1953C8.22208 10.9765 7.17948 11.3671 5.80194 11.3671H2.8125V2.14062H5.80194C7.17948 2.14062 8.22208 2.53118 8.92962 3.31243C9.63688 4.09381 9.99058 5.24077 9.99058 6.75385C9.99058 8.26693 9.63688 9.41415 8.92962 10.1953M5.80337 0.294922H0.96875V13.2119H5.80337C7.78382 13.2119 9.28461 12.6675 10.3058 11.5788C11.3268 10.4903 11.8373 8.88173 11.8373 6.75346C11.8373 4.62532 11.3268 3.01679 10.3058 1.92802C9.28461 0.839242 7.78382 0.294922 5.80337 0.294922" fill="white"/>
<path fill-rule="evenodd" clip-rule="evenodd" d="M14.3952 2.58349C14.7519 2.58349 15.0595 2.45727 15.3178 2.20509C15.5762 1.95305 15.7054 1.65469 15.7054 1.31017C15.7054 0.953505 15.5762 0.64584 15.3178 0.38745C15.0595 0.129195 14.7519 0 14.3952 0C14.0507 0 13.7494 0.129195 13.4911 0.38745C13.2327 0.64584 13.1035 0.953505 13.1035 1.31017C13.1035 1.65469 13.2327 1.95305 13.4911 2.20509C13.7494 2.45727 14.0507 2.58349 14.3952 2.58349" fill="white"/>
<path fill-rule="evenodd" clip-rule="evenodd" d="M15.3176 3.98438H13.4725V11.3655H11.9961V13.2107H16.7939V11.3655H15.3176V3.98438Z" fill="white"/>
<path fill-rule="evenodd" clip-rule="evenodd" d="M24.5994 10.7766C24.0764 11.2688 23.3045 11.5146 22.2836 11.5146C21.2623 11.5146 20.4905 11.2688 19.9678 10.7766C19.4447 10.2847 19.1836 9.55877 19.1836 8.59919C19.1836 7.63961 19.4447 6.91398 19.9678 6.42164C20.4905 5.92983 21.2623 5.68359 22.2836 5.68359C23.3045 5.68359 24.0764 5.92983 24.5994 6.42164C25.1221 6.91398 25.3836 7.63961 25.3836 8.59919C25.3836 9.55877 25.1221 10.2847 24.5994 10.7766V10.7766ZM25.3832 4.87172C24.6465 4.18322 23.6138 3.83789 22.2832 3.83789C20.6593 3.83789 19.429 4.24114 18.5926 5.04668C17.756 5.8525 17.3379 7.03658 17.3379 8.5988C17.3379 10.1612 17.756 11.3454 18.5926 12.1511C19.429 12.9567 20.6593 13.3596 22.2832 13.3596C23.6138 13.3596 24.6465 13.0145 25.3832 12.3259V14.0793L24.5528 15.0572H20.4194L18.9617 13.3226L17.836 14.6511L19.7367 16.9025H25.4202L27.2285 14.762V3.98558H25.3832V4.87172Z" fill="white"/>
<path fill-rule="evenodd" clip-rule="evenodd" d="M30.5572 2.58349C30.914 2.58349 31.2216 2.45727 31.4799 2.20509C31.7382 1.95305 31.8673 1.65469 31.8673 1.31017C31.8673 0.953505 31.7382 0.64584 31.4799 0.38745C31.2216 0.129195 30.914 0 30.5572 0C30.2127 0 29.9115 0.129195 29.6531 0.38745C29.3948 0.64584 29.2656 0.953505 29.2656 1.31017C29.2656 1.65469 29.3948 1.95305 29.6531 2.20509C29.9115 2.45727 30.2127 2.58349 30.5572 2.58349" fill="white"/>
<path fill-rule="evenodd" clip-rule="evenodd" d="M31.4817 3.98438H29.6365V11.3655H28.1602V13.2107H32.9579V11.3655H31.4817V3.98438Z" fill="white"/>
<path fill-rule="evenodd" clip-rule="evenodd" d="M36.7364 2.14062H34.8912V3.98594H32.8613V5.83125H34.8912V11.127L36.6995 13.2122H39.1353V11.3671H37.5852L36.7364 10.352V5.83125H39.1353V3.98594H36.7364V2.14062Z" fill="white"/>
<path fill-rule="evenodd" clip-rule="evenodd" d="M46.4067 11.2442C45.9515 11.4351 45.2872 11.5303 44.4138 11.5303C43.5403 11.5303 42.8759 11.4351 42.4211 11.2442C41.9658 11.0536 41.7383 10.7677 41.7383 10.3862C41.7383 10.0049 41.9658 9.71887 42.4211 9.52812C42.8759 9.33763 43.5403 9.24219 44.4138 9.24219C45.2872 9.24219 45.9515 9.33763 46.4067 9.52812C46.8617 9.71887 47.0895 10.0049 47.0895 10.3862C47.0895 10.7677 46.8617 11.0536 46.4067 11.2442V11.2442ZM41.9223 3.98438L40.3724 5.7927L41.5902 7.25043L42.8265 5.81106H46.2218L47.0892 6.84449V8.08703C46.4347 7.72658 45.5434 7.54568 44.4135 7.54568C42.9248 7.54568 41.7992 7.78543 41.0367 8.26536C40.2737 8.74515 39.8926 9.45268 39.8926 10.3874C39.8926 11.3718 40.2737 12.1158 41.0367 12.6202C41.7992 13.1248 42.9248 13.3767 44.4135 13.3767C45.5434 13.3767 46.4347 13.1868 47.0892 12.8077V13.2107H48.9345V6.18015L47.1075 3.98438H41.9223Z" fill="white"/>
<path fill-rule="evenodd" clip-rule="evenodd" d="M49.4805 2.14024H50.9567V13.2119H52.802V0.294922H49.4805V2.14024Z" fill="white"/>
<path fill-rule="evenodd" clip-rule="evenodd" d="M83.695 8.19434L81.5628 7.27526C80.9378 6.99946 80.6988 6.779 80.6988 6.33782C80.6988 5.80471 81.0848 5.58412 82.3164 5.58412C83.4744 5.58412 84.0443 5.74963 84.5038 5.87828C85.1104 6.04366 85.2574 5.87828 85.2574 5.25337V5.03264C85.2574 4.40773 85.1104 4.29757 84.4853 4.11356C83.9523 3.96668 83.4009 3.83789 82.3533 3.83789C79.8901 3.83789 78.8425 4.64681 78.8425 6.33782C78.8425 7.77152 79.541 8.34136 80.6621 8.83775L82.6473 9.72011C83.548 10.1244 83.8237 10.345 83.8237 10.8229C83.8237 11.4295 83.3274 11.6134 82.1142 11.6134C80.7541 11.6134 79.9269 11.3928 79.4305 11.2641C78.824 11.117 78.6953 11.2823 78.6953 11.9075V12.1463C78.6953 12.7712 78.824 12.8817 79.4305 13.0471C79.9084 13.1757 80.6988 13.3596 81.9488 13.3596C84.5589 13.3596 85.6619 12.5508 85.6619 10.7862C85.6619 9.31565 84.9266 8.7091 83.695 8.19434" fill="white"/>
<path fill-rule="evenodd" clip-rule="evenodd" d="M92.6146 11.4582C92.3932 11.5135 91.7844 11.6242 91.12 11.6242C90.2528 11.6242 89.6808 11.2368 89.6808 10.019V5.83031H92.264C92.8915 5.83031 93.0391 5.68275 93.0391 5.05527V4.83401C93.0391 4.20639 92.8915 4.05884 92.264 4.05884H89.6808V2.32436C89.6808 1.78935 89.5518 1.66016 89.0165 1.66016H88.7766C88.2414 1.66016 88.0939 1.78935 88.02 2.32436L87.7986 4.05884L86.8207 4.24352C86.3226 4.33559 86.1934 4.48328 86.1934 4.99992V5.18433C86.1934 5.70111 86.3226 5.83031 86.8392 5.83031H87.7986V10.0003C87.7986 12.5652 89.201 13.3957 91.12 13.3957C91.8212 13.3957 92.3379 13.3034 92.6146 13.248C93.2236 13.1188 93.3712 12.9528 93.3712 12.3254V12.1039C93.3712 11.4767 93.2236 11.329 92.6146 11.4582" fill="white"/>
<path fill-rule="evenodd" clip-rule="evenodd" d="M99.8748 10.3328C99.8748 11.5802 98.9943 11.7638 97.8018 11.7638C96.8662 11.7638 96.0039 11.5802 96.0039 10.4979C96.0039 9.56238 96.6094 9.19531 97.8569 9.19531H99.8748V10.3328ZM97.5987 3.85742C96.6082 3.85742 96.1863 3.93073 95.7643 4.00403C95.2507 4.09583 95.1039 4.24271 95.1039 4.79297V5.04974C95.1039 5.60014 95.2323 5.74688 95.7826 5.63686C96.1495 5.56342 96.81 5.47175 97.7089 5.47175C99.0114 5.47175 99.8736 5.72866 99.8736 6.8659V7.76486H97.8558C95.5624 7.76486 94.1133 8.48023 94.1133 10.5351C94.1133 12.4796 95.4525 13.3602 97.8373 13.3602C100.552 13.3602 101.745 12.4429 101.745 10.425V6.8659C101.745 4.57279 100.075 3.85742 97.5987 3.85742V3.85742Z" fill="white"/>
<path fill-rule="evenodd" clip-rule="evenodd" d="M107.083 3.87578C106.935 3.85742 106.843 3.85742 106.714 3.85742C104.334 3.85742 103.227 5.05676 103.227 7.12348V12.3823C103.227 13.0466 103.393 13.2125 104.057 13.2125H104.297C104.961 13.2125 105.127 13.0466 105.127 12.3823V7.25254C105.127 6.20089 105.422 5.62876 106.714 5.62876C106.843 5.62876 106.935 5.62876 107.083 5.64725C107.71 5.73959 107.858 5.62876 107.858 5.00141V4.74316C107.858 4.11568 107.71 3.94963 107.083 3.87578" fill="white"/>
<path fill-rule="evenodd" clip-rule="evenodd" d="M114.863 9.39255C114.863 10.8256 114.422 11.579 112.529 11.579C110.618 11.579 110.232 10.8256 110.232 9.39255V7.81238C110.232 6.37922 110.655 5.60742 112.529 5.60742C114.422 5.60742 114.863 6.37922 114.863 7.81238V9.39255ZM115.91 0.296875H115.689C115.028 0.296875 114.863 0.46225 114.863 1.12362V5.03727C114.403 4.30246 113.576 3.84306 112.18 3.84306C109.516 3.84306 108.34 5.33144 108.34 7.84851V9.42869C108.34 12.1115 109.755 13.3608 112.547 13.3608C115.12 13.3608 116.737 12.1115 116.737 9.42869V1.12362C116.737 0.46225 116.571 0.296875 115.91 0.296875V0.296875Z" fill="white"/>
<path fill-rule="evenodd" clip-rule="evenodd" d="M119.718 11.0164C119.46 10.7581 119.152 10.6289 118.796 10.6289C118.451 10.6289 118.15 10.7581 117.891 11.0164C117.633 11.2747 117.504 11.5823 117.504 11.9389C117.504 12.2836 117.633 12.582 117.891 12.834C118.15 13.0862 118.451 13.2123 118.796 13.2123C119.152 13.2123 119.46 13.0862 119.718 12.834C119.977 12.582 120.106 12.2836 120.106 11.9389C120.106 11.5823 119.977 11.2747 119.718 11.0164" fill="white"/>
<path fill-rule="evenodd" clip-rule="evenodd" d="M76.9251 3.9844H76.671C75.9674 3.9844 75.7916 4.1603 75.7916 4.86392V9.47283C75.7916 10.7044 75.4203 11.3883 73.5635 11.3883C71.7611 11.3883 71.4522 10.7101 71.3578 9.541L70.886 3.15833C70.7304 1.11457 69.9321 0.296875 68.2192 0.296875C66.623 0.296875 65.8639 1.09513 65.6106 3.15833L64.6959 10.6873C64.6181 11.2714 64.5595 11.3883 64.2675 11.3883C63.9755 11.3883 63.917 11.2714 63.8391 10.6873L62.9242 3.15833C62.6711 1.09513 61.912 0.296875 60.3158 0.296875C58.6028 0.296875 57.8046 1.11457 57.649 3.15833L56.9869 12.317C56.9286 13.0375 57.1037 13.2125 57.8242 13.2125H58.1162C58.8363 13.2125 59.0308 13.0375 59.07 12.317L59.6732 3.31804C59.7319 2.4616 59.946 2.26693 60.3352 2.26693C60.7244 2.26693 60.9191 2.4616 61.036 3.31804L62.1066 11.2951C62.3208 12.9107 63.0217 13.3584 64.2675 13.3584C65.5133 13.3584 66.2142 12.9107 66.4283 11.2951L67.4991 3.31804C67.6159 2.4616 67.8106 2.26693 68.1996 2.26693C68.589 2.26693 68.8032 2.4616 68.8617 3.31804C68.8617 3.31804 69.2842 9.55166 69.2844 9.55423C69.4007 11.2159 70.0212 12.4195 71.395 12.989C71.9767 13.2301 72.6923 13.3584 73.5635 13.3584C76.6126 13.3584 77.8048 11.9902 77.8048 9.54694V4.86392C77.8048 4.1603 77.6289 3.9844 76.9251 3.9844" fill="white"/>
</svg>
