<?xml version="1.0" encoding="UTF-8" standalone="no"?>
<!DOCTYPE svg PUBLIC "-//W3C//DTD SVG 1.1//EN" "http://www.w3.org/Graphics/SVG/1.1/DTD/svg11.dtd">
<!-- Created with Vectornator (http://vectornator.io/) -->
<svg height="100%" stroke-miterlimit="10" style="fill-rule:nonzero;clip-rule:evenodd;stroke-linecap:round;stroke-linejoin:round;" version="1.1" viewBox="0 0 164 59" width="100%" xml:space="preserve" xmlns="http://www.w3.org/2000/svg" xmlns:vectornator="http://vectornator.io" xmlns:xlink="http://www.w3.org/1999/xlink">
<defs/>
<g id="Untitled" vectornator:layerName="Untitled">
<g opacity="1" vectornator:layerName="rect">
<clipPath id="ClipPath">
<path d="M0 0L164 0L164 0L164 58.5714L164 58.5714L0 58.5714L0 58.5714L0 0L0 0Z"/>
</clipPath>
<g clip-path="url(#ClipPath)">
<path d="M163.988 42.8598C163.988 42.8598 163.988 42.7316 163.918 42.6889L162.584 42.6889L162.584 44.2985C159.441 41.7488 156.971 41.5635 154.627 43.6146C153.623 44.4939 152.957 45.706 152.749 47.0358C152.541 48.3656 152.804 49.7272 153.49 50.8792C153.939 51.6535 154.57 52.3023 155.327 52.7673C156.084 53.2323 156.943 53.4989 157.827 53.5428C158.73 53.5948 159.633 53.4371 160.467 53.0817C161.301 52.7263 162.045 52.1824 162.641 51.4916C162.619 52.1972 162.558 52.901 162.458 53.5997C162.425 54.0345 162.307 54.4583 162.112 54.8469C161.917 55.2355 161.648 55.5814 161.321 55.8646C160.368 56.588 159.186 56.9297 158.001 56.8246C156.815 56.7195 155.709 56.175 154.894 55.2948C154.7 55.0001 154.419 54.7753 154.091 54.6525C153.763 54.5297 153.406 54.5152 153.069 54.6111C153.283 55.3195 153.679 55.957 154.217 56.4579C154.755 56.9587 155.415 57.3047 156.129 57.4599C156.866 57.635 157.618 57.7399 158.374 57.7733C161.7 57.93 163.791 56.1352 163.918 52.7879C164.044 49.4405 163.974 46.1929 163.988 42.8598ZM158.374 52.5742C157.783 52.589 157.194 52.4817 156.645 52.2586C156.096 52.0355 155.597 51.7014 155.178 51.2765C154.76 50.8516 154.432 50.3449 154.212 49.7871C153.993 49.2292 153.888 48.632 153.903 48.0316C153.918 47.4312 154.054 46.8402 154.301 46.2946C154.548 45.7489 154.902 45.2599 155.341 44.8575C155.781 44.455 156.296 44.1474 156.856 43.9533C157.416 43.7592 158.009 43.6829 158.599 43.7287C159.157 43.7523 159.705 43.8883 160.21 44.1289C160.716 44.3695 161.169 44.7099 161.544 45.1301C161.919 45.5504 162.208 46.042 162.394 46.5766C162.579 47.1112 162.659 47.678 162.627 48.2439C162.634 48.8159 162.528 49.3837 162.316 49.9135C162.103 50.4433 161.788 50.9243 161.389 51.3282C160.99 51.732 160.515 52.0503 159.992 52.2643C159.469 52.4784 158.91 52.5837 158.346 52.5742L158.374 52.5742Z" fill="#4eadea" fill-rule="nonzero" opacity="0" stroke="none" vectornator:layerName="path"/>
<path d="M148.954 43.1446C148.231 42.6065 147.359 42.3164 146.463 42.3164C145.567 42.3164 144.694 42.6065 143.972 43.1446C143.452 43.5434 142.975 44.0135 142.386 44.569L142.386 42.76L140.982 42.76L140.982 53.6282L142.245 53.6282C142.245 53.1581 142.245 52.7592 142.245 52.3462C142.245 50.6084 142.245 48.8708 142.4 47.133C142.474 46.3209 142.803 45.5543 143.338 44.9465C143.874 44.3386 144.588 43.9217 145.375 43.7572C145.781 43.6409 146.208 43.6193 146.624 43.6939C147.04 43.7684 147.434 43.9373 147.777 44.1878C148.119 44.4384 148.402 44.7641 148.603 45.1409C148.804 45.5176 148.92 45.9356 148.94 46.3637C149.052 48.0873 148.94 49.8393 149.01 51.5771C149.01 52.2466 149.01 52.9159 149.01 53.6139L150.245 53.6139C150.245 51.1212 150.329 48.6856 150.245 46.2499C150.276 45.6667 150.176 45.0841 149.952 44.546C149.728 44.008 149.387 43.5287 148.954 43.1446L148.954 43.1446Z" fill="#4eadea" fill-rule="nonzero" opacity="0" stroke="none" vectornator:layerName="path"/>
<path d="M102.28 26.8783C101.47 27.7333 100.501 28.4176 99.4292 28.8918C98.3575 29.366 97.2041 29.6208 96.0352 29.6417C94.6122 29.736 93.1915 29.426 91.9323 28.7468C90.6731 28.0675 89.6251 27.0458 88.906 25.7959C88.3219 24.7976 87.9528 23.6849 87.8231 22.5313C87.6933 21.3778 87.8059 20.2094 88.1533 19.1032C88.5006 17.997 89.075 16.9781 89.8385 16.1135C90.6021 15.2489 91.5373 14.5582 92.5829 14.0872C94.2163 13.4625 95.9928 13.3305 97.6984 13.7071C99.404 14.0836 100.966 14.9527 102.196 16.2095C102.382 16.4559 102.546 16.7181 102.687 16.993L105.62 13.7453C101.593 8.14742 92.8355 7.57769 87.1658 12.7055C85.9915 13.8662 85.0546 15.251 84.4089 16.7802C83.7632 18.3094 83.4214 19.953 83.4031 21.6166C83.3849 23.2802 83.6905 24.9309 84.3025 26.4744C84.9145 28.0178 85.8207 29.4232 86.9693 30.6102C91.7128 35.3819 100.582 35.3251 105.705 29.3569L102.898 26.3229L102.28 26.8783Z" fill="#4eadea" fill-rule="nonzero" opacity="0" stroke="none" vectornator:layerName="path"/>
<path d="M76.457 21.1525C74.7028 19.5144 72.8925 17.9476 71.1242 16.3237C70.8583 16.0962 70.6698 15.7893 70.5854 15.4469C70.501 15.1044 70.5249 14.7438 70.6538 14.416C70.7827 14.0881 71.0099 13.8096 71.3035 13.6203C71.597 13.4309 71.9418 13.3401 72.289 13.3609C72.9485 13.3922 73.592 13.5774 74.1695 13.9021C74.8661 14.4411 75.5185 15.0366 76.1202 15.6826L79.2779 12.8338C77.243 10.2129 74.8712 8.56076 71.461 9.04506C70.4272 9.16635 69.4432 9.56197 68.6079 10.1921C67.7727 10.8223 67.1159 11.6646 66.7036 12.6344C66.2931 13.5703 66.1593 14.6071 66.3188 15.6187C66.4783 16.6302 66.924 17.5729 67.6017 18.332C68.9531 19.8369 70.3869 21.2636 71.896 22.6052C72.8082 23.4884 73.8608 24.2291 74.7028 25.1692C75.0481 25.4706 75.2957 25.8709 75.413 26.3175C75.5303 26.7641 75.5119 27.2364 75.3601 27.6722C75.2084 28.108 74.9304 28.4871 74.5627 28.7598C74.195 29.0325 73.7546 29.1859 73.2994 29.2002C72.576 29.3145 71.8355 29.2027 71.1762 28.8796C70.5169 28.5565 69.9701 28.0375 69.6085 27.3914C69.3278 27.021 69.0753 26.6078 68.7946 26.1947L65.1738 28.4169C65.8651 30.2438 67.1822 31.7564 68.8835 32.6774C70.5848 33.5984 72.5563 33.8659 74.4362 33.4308C75.9639 33.1627 77.3389 32.3273 78.2934 31.0873C79.248 29.8473 79.7139 28.2912 79.6006 26.7218C79.3156 24.5178 78.1861 22.5168 76.457 21.1525L76.457 21.1525Z" fill="#4eadea" fill-rule="nonzero" opacity="0" stroke="none" vectornator:layerName="path"/>
<path d="M116.594 33.2878C116.791 33.2878 117.001 33.2878 117.296 33.2878L117.296 13.9588L121.408 13.9588L121.408 9.68555L108.777 9.68555C108.777 10.9248 108.777 12.0928 108.777 13.2751C108.777 13.8448 108.932 14.0443 109.507 14.0158C110.616 14.0158 111.724 14.0158 112.889 14.0158L112.889 33.2452L116.594 33.2878Z" fill="#4eadea" fill-rule="nonzero" opacity="0" stroke="none" vectornator:layerName="path"/>
<path d="M71.417 39.8119C72.5512 39.6761 73.7006 39.8454 74.7499 40.3029C75.7993 40.7604 76.7116 41.49 77.3954 42.4185L78.4058 41.5781C77.1287 39.1709 73.494 37.9173 70.2802 38.6438C68.6245 39.0334 67.1426 39.9689 66.066 41.3038C64.9895 42.6387 64.379 44.2979 64.3299 46.0223C64.2472 47.6965 64.7035 49.3526 65.6302 50.7403C66.5569 52.1279 67.9034 53.1718 69.4662 53.7141C72.5817 54.7396 76.7919 53.5004 78.3917 51.0219L77.4094 50.2527C76.1651 51.6283 74.4383 52.4528 72.6009 52.5488C70.7635 52.6447 68.9624 52.0042 67.5856 50.7655C66.4788 49.5701 65.8407 48.0052 65.7916 46.3655C65.7425 44.7258 66.2857 43.1244 67.319 41.863C68.3823 40.6807 69.8455 39.9484 71.417 39.8119L71.417 39.8119Z" fill="#4eadea" fill-rule="nonzero" opacity="0" stroke="none" vectornator:layerName="path"/>
<path d="M86.6606 42.4474C85.9001 42.381 85.1341 42.4678 84.4067 42.7028C83.6793 42.9378 83.0047 43.3164 82.4219 43.8167C81.839 44.317 81.3592 44.9292 81.0101 45.6182C80.661 46.3072 80.4494 47.0594 80.3875 47.8317C80.3516 48.5799 80.4612 49.3279 80.7101 50.0331C80.959 50.7383 81.3423 51.3869 81.8381 51.9418C82.334 52.4966 82.9327 52.947 83.6 53.2671C84.2673 53.5871 84.9902 53.7705 85.7274 53.807C86.4646 53.8434 87.2016 53.7322 87.8964 53.4795C88.5912 53.2269 89.2302 52.8378 89.7769 52.3346C90.3236 51.8313 90.7672 51.2237 91.0825 50.5464C91.3979 49.8691 91.5787 49.1354 91.6146 48.3872C91.6556 46.9514 91.1725 45.5509 90.2581 44.4546C89.3438 43.3583 88.0626 42.6434 86.6606 42.4474L86.6606 42.4474ZM86.2396 52.6747C85.3773 52.6773 84.5334 52.4212 83.8138 51.9388C83.0942 51.4565 82.5309 50.7692 82.1946 49.9632C81.8584 49.1572 81.7641 48.2684 81.9237 47.4083C82.0832 46.5481 82.4895 45.7549 83.0915 45.1282C83.6935 44.5015 84.4645 44.0691 85.3076 43.8853C86.1508 43.7016 87.0286 43.7747 87.831 44.0954C88.6334 44.4161 89.3246 44.97 89.8179 45.6879C90.3113 46.4058 90.5848 47.2557 90.6042 48.1307C90.6174 48.7188 90.5139 49.3035 90.3 49.8502C90.086 50.3969 89.7659 50.8944 89.3587 51.313C88.9515 51.7316 88.4656 52.0628 87.9297 52.2869C87.3939 52.511 86.8192 52.6235 86.2396 52.6176L86.2396 52.6747Z" fill="#4eadea" fill-rule="nonzero" opacity="0" stroke="none" vectornator:layerName="path"/>
<path d="M100.696 42.4469C100.077 42.2588 99.4224 42.2239 98.7875 42.3454C98.1526 42.4668 97.5558 42.741 97.0468 43.1448C96.5416 43.5437 96.0784 44.0137 95.503 44.5692L95.503 42.7175L94.0996 42.7175L94.0996 53.5856L95.3627 53.5856C95.3627 53.1868 95.3627 52.8166 95.3627 52.4605C95.3627 50.623 95.3627 48.7856 95.5592 46.9623C95.625 46.1927 95.9336 45.465 96.4392 44.8876C96.9449 44.3102 97.6206 43.9139 98.366 43.7574C98.7767 43.616 99.214 43.5729 99.6438 43.6319C100.074 43.6908 100.484 43.8501 100.843 44.0972C101.202 44.3442 101.5 44.6723 101.713 45.0558C101.926 45.4392 102.048 45.8674 102.071 46.307C102.071 46.9764 102.071 47.7314 102.141 48.3297L102.141 53.5716L103.334 53.5716C103.334 51.0076 103.432 48.5006 103.334 46.0079C103.375 45.1947 103.133 44.3928 102.651 43.7419C102.169 43.0911 101.477 42.6327 100.696 42.4469L100.696 42.4469Z" fill="#4eadea" fill-rule="nonzero" opacity="0" stroke="none" vectornator:layerName="path"/>
<path d="M122.11 43.5151C122.11 45.3953 122.11 47.2898 122.026 49.2127C122.006 49.8603 121.838 50.4944 121.535 51.0645C121.155 51.6914 120.581 52.1718 119.902 52.4298C119.224 52.6878 118.479 52.7087 117.788 52.4889C117.116 52.347 116.513 51.9724 116.083 51.4293C115.653 50.8863 115.422 50.2085 115.43 49.5118C115.318 47.5604 115.346 45.5947 115.318 43.6433L115.318 42.7744L114.125 42.7744C114.091 42.8261 114.067 42.8842 114.055 42.9453C114.055 44.7116 114.055 46.4778 114.055 48.2441C114.08 49.01 114.169 49.7725 114.321 50.5233C114.484 51.5774 115.029 52.5318 115.85 53.1987C116.67 53.8656 117.707 54.1966 118.756 54.1269C119.82 54.2357 120.883 53.9185 121.72 53.2425C122.556 52.5666 123.099 51.5856 123.233 50.509C123.556 47.9736 123.527 45.3811 123.64 42.7887L122.124 42.7887L122.11 43.5151Z" fill="#4eadea" fill-rule="nonzero" opacity="0" stroke="none" vectornator:layerName="path"/>
<path d="M132.941 38.6016L131.636 38.6016L131.636 42.6611L129.77 42.6611L129.77 43.8291L131.664 43.8291L131.664 53.6575L132.983 53.6575L132.983 43.8149L135.074 43.8149L135.074 42.6041L132.941 42.6041L132.941 38.6016Z" fill="#4eadea" fill-rule="nonzero" opacity="0" stroke="none" vectornator:layerName="path"/>
<path d="M110.994 48.4581C110.446 48.0023 109.801 47.6748 109.211 47.276C108.721 46.998 108.252 46.6837 107.808 46.3358C107.515 46.1399 107.305 45.8396 107.219 45.4942C107.133 45.1488 107.178 44.7834 107.345 44.4699C107.514 44.1305 107.802 43.8667 108.152 43.7299C108.502 43.5931 108.889 43.5929 109.239 43.7292C109.884 43.9944 110.512 44.2988 111.12 44.6408C111.274 44.4557 111.513 44.185 111.807 43.8716C111.416 43.3505 110.896 42.944 110.299 42.6938C109.702 42.4435 109.051 42.3585 108.411 42.4472C107.922 42.5718 107.475 42.8278 107.117 43.1885C106.759 43.5491 106.503 44.001 106.377 44.4965C106.251 44.9921 106.258 45.5131 106.399 46.0047C106.54 46.4963 106.808 46.9404 107.176 47.2902C107.766 47.7318 108.397 48.1164 109.015 48.5294C109.394 48.7716 109.801 48.9853 110.166 49.2559C110.463 49.4598 110.688 49.7556 110.807 50.0994C110.925 50.4432 110.932 50.8167 110.825 51.1645C110.726 51.5169 110.526 51.8318 110.252 52.0699C109.977 52.308 109.64 52.459 109.281 52.5036C108.767 52.5926 108.239 52.5344 107.755 52.3356C107.272 52.1368 106.853 51.8053 106.545 51.3782L105.717 52.2899C106.045 52.7169 106.454 53.0737 106.919 53.3401C107.383 53.6065 107.895 53.7773 108.425 53.8424C109.097 53.9815 109.796 53.882 110.404 53.5604C111.012 53.2388 111.493 52.7148 111.765 52.0762C112.082 51.4787 112.179 50.786 112.037 50.1227C111.896 49.4594 111.526 48.869 110.994 48.4581L110.994 48.4581Z" fill="#4eadea" fill-rule="nonzero" opacity="0" stroke="none" vectornator:layerName="path"/>
<path d="M127.568 38.5166L126.375 38.5166L126.375 53.658L127.568 53.658L127.568 38.5166Z" fill="#4eadea" fill-rule="nonzero" opacity="0" stroke="none" vectornator:layerName="path"/>
<path d="M136.943 42.6328L136.943 53.558L138.122 53.558L138.122 42.6756L137.645 42.6756L136.943 42.6328Z" fill="#4eadea" fill-rule="nonzero" opacity="0" stroke="none" vectornator:layerName="path"/>
<path d="M137.576 38.1748C137.289 38.1784 137.014 38.2947 136.81 38.4993C136.606 38.7038 136.488 38.9806 136.481 39.2716C136.477 39.4162 136.502 39.56 136.554 39.6947C136.606 39.8293 136.684 39.9521 136.783 40.0556C136.883 40.1592 137.001 40.2415 137.133 40.2977C137.264 40.3538 137.405 40.3827 137.547 40.3827C137.815 40.3518 138.061 40.2222 138.24 40.0186C138.419 39.815 138.518 39.5517 138.518 39.2788C138.518 39.0058 138.419 38.7425 138.24 38.5389C138.061 38.3353 137.815 38.2057 137.547 38.1748L137.576 38.1748Z" fill="#4eadea" fill-rule="nonzero" opacity="0" stroke="none" vectornator:layerName="path"/>
</g>
</g>
</g>
<clipPath id="ArtboardFrame">
<rect height="59" width="164" x="0" y="0"/>
</clipPath>
<g clip-path="url(#ArtboardFrame)" id="Layer-1" vectornator:layerName="Layer 1">
<g fill="#4eadea" opacity="1" stroke="none">
<path d="M51.6128 30.6192C53.7925 30.6192 55.4839 31.1934 56.687 32.3418C57.8901 33.4903 58.5581 34.795 58.6909 36.2559L56.4175 36.2559C56.1597 35.1465 55.646 34.2676 54.8765 33.6192C54.1069 32.9707 53.0269 32.6465 51.6362 32.6465C49.9409 32.6465 48.5718 33.2422 47.5288 34.4336C46.4858 35.625 45.9644 37.4512 45.9644 39.9122C45.9644 41.9278 46.4351 43.5625 47.3765 44.8165C48.3179 46.0704 49.7222 46.6973 51.5894 46.6973C53.3081 46.6973 54.6167 46.0372 55.5151 44.7168C55.9917 44.0215 56.3472 43.1075 56.5815 41.9747L58.855 41.9747C58.6519 43.7872 57.98 45.3067 56.8394 46.5332C55.4722 48.0098 53.6284 48.7481 51.3081 48.7481C49.3081 48.7481 47.6284 48.1426 46.269 46.9317C44.48 45.3301 43.5855 42.8575 43.5855 39.5137C43.5855 36.9747 44.2573 34.8926 45.6011 33.2676C47.0542 31.502 49.0581 30.6192 51.6128 30.6192Z"/>
<path d="M69.1206 30.6192C72.1597 30.6192 74.4097 31.5957 75.8706 33.5489C77.0112 35.0723 77.5815 37.0215 77.5815 39.3965C77.5815 41.9668 76.9292 44.1036 75.6245 45.8067C74.0933 47.8067 71.9097 48.8067 69.0737 48.8067C66.4253 48.8067 64.3433 47.9317 62.8276 46.1817C61.4761 44.4942 60.8003 42.3614 60.8003 39.7832C60.8003 37.4551 61.3784 35.4629 62.5347 33.8067C64.019 31.6817 66.2144 30.6192 69.1206 30.6192ZM69.355 46.7207C71.4097 46.7207 72.896 45.9844 73.814 44.5118C74.7319 43.0391 75.1909 41.3457 75.1909 39.4317C75.1909 37.4082 74.6616 35.7793 73.603 34.545C72.5444 33.3106 71.0972 32.6934 69.2612 32.6934C67.48 32.6934 66.0269 33.3047 64.9019 34.5274C63.7769 35.75 63.2144 37.5528 63.2144 39.9356C63.2144 41.8418 63.6968 43.4493 64.6616 44.7579C65.6265 46.0665 67.1909 46.7207 69.355 46.7207Z"/>
<path d="M87.7886 30.6192C90.8276 30.6192 93.0776 31.5957 94.5386 33.5489C95.6792 35.0723 96.2495 37.0215 96.2495 39.3965C96.2495 41.9668 95.5972 44.1036 94.2925 45.8067C92.7612 47.8067 90.5776 48.8067 87.7417 48.8067C85.0933 48.8067 83.0112 47.9317 81.4956 46.1817C80.144 44.4942 79.4683 42.3614 79.4683 39.7832C79.4683 37.4551 80.0464 35.4629 81.2026 33.8067C82.687 31.6817 84.8823 30.6192 87.7886 30.6192ZM88.023 46.7207C90.0776 46.7207 91.564 45.9844 92.4819 44.5118C93.3999 43.0391 93.8589 41.3457 93.8589 39.4317C93.8589 37.4082 93.3296 35.7793 92.271 34.545C91.2124 33.3106 89.7651 32.6934 87.9292 32.6934C86.148 32.6934 84.6948 33.3047 83.5698 34.5274C82.4448 35.75 81.8823 37.5528 81.8823 39.9356C81.8823 41.8418 82.3648 43.4493 83.3296 44.7579C84.2944 46.0665 85.8589 46.7207 88.023 46.7207Z"/>
<path d="M99.0269 31.0879L101.359 31.0879L101.359 46.252L110.078 46.252L110.078 48.3028L99.0269 48.3028L99.0269 31.0879Z"/>
</g>
<path d="M43.146 29.2833C43.5366 28.5023 43.6807 27.622 43.5591 26.7582C43.4376 25.8945 43.0562 25.0874 42.465 24.4429C40.9913 22.8565 39.416 21.3306 37.9321 19.7846C34.7103 16.5106 31.5087 13.2164 28.2463 9.97273C27.8468 9.5731 27.3716 9.25586 26.8484 9.03945C26.3251 8.82304 25.764 8.71171 25.1972 8.71171C24.6305 8.71171 24.0693 8.82304 23.5461 9.03945C23.0228 9.25586 22.5477 9.5731 22.1482 9.97273C21.6908 10.3971 21.2538 10.8316 20.8168 11.2762C20.7488 11.3598 20.6527 11.4162 20.5462 11.4348C20.4397 11.4534 20.3299 11.4328 20.2374 11.3772C19.4192 10.9898 18.4981 10.8722 17.6078 11.0412C16.7176 11.2102 15.9049 11.6571 15.2878 12.317C10.6126 16.8845 5.96787 21.4923 1.32314 26.08C0.876174 26.4977 0.522223 27.0041 0.284147 27.5663C0.0460712 28.1285-0.0708276 28.734-0.0590826 29.3438C-0.0828901 29.9302 0.0179044 30.515 0.236816 31.06C0.455727 31.605 0.787834 32.0979 1.21135 32.5066C5.75784 37.1617 10.3077 41.8066 14.861 46.4414C15.4981 47.1285 16.3343 47.6016 17.2539 47.7953C18.1735 47.989 19.1309 47.8937 19.9935 47.5225C20.0899 47.4998 20.1901 47.499 20.2869 47.52C20.3836 47.541 20.4744 47.5833 20.5525 47.6439C20.9896 48.0278 21.3858 48.4624 21.8026 48.8666C22.2133 49.304 22.7079 49.655 23.2574 49.8991C23.8068 50.1431 24.3999 50.2751 25.0016 50.2874C25.6033 50.2996 26.2013 50.1918 26.7604 49.9704C27.3194 49.7489 27.8282 49.4182 28.2565 48.998C32.9012 44.471 37.5154 39.9034 42.1601 35.3764C42.885 34.6828 43.3655 33.7754 43.5302 32.7888C43.6951 31.8021 43.5354 30.7889 43.0749 29.8996C43.0195 29.6926 43.0449 29.4724 43.146 29.2833ZM23.1544 9.87158C23.9575 9.3944 24.9015 9.20728 25.8272 9.34166C26.753 9.47604 27.6038 9.9238 28.2361 10.6093C31.5494 14.0181 34.8661 17.4133 38.1862 20.7951C39.4567 22.0885 40.7372 23.3617 41.967 24.6753C42.5071 25.2142 42.876 25.8989 43.0278 26.6445C43.1796 27.3901 43.1076 28.1637 42.8208 28.8689C42.8208 28.9598 42.7293 29.0507 42.7293 29.0709C42.1703 28.5657 41.5909 28.0604 41.0625 27.5451C36.997 23.3953 32.9317 19.2389 28.8662 15.0756C28.2343 14.3376 27.3802 13.8212 26.4304 13.6028C25.4804 13.3845 24.4851 13.4757 23.5914 13.8631C23.5086 13.8871 23.4213 13.8914 23.3365 13.8756C23.2518 13.8598 23.172 13.8243 23.1035 13.7721C22.4328 13.1355 21.8026 12.4584 21.0708 11.7511C21.7246 11.0813 22.4205 10.4535 23.1544 9.87158L23.1544 9.87158ZM23.7235 44.279L35.2286 32.9311C35.6937 32.5089 36.0661 31.9958 36.3224 31.4239C36.5787 30.852 36.7134 30.2337 36.7182 29.6075C36.723 28.9814 36.5977 28.3611 36.3501 27.7854C36.1025 27.2097 35.738 26.691 35.2794 26.2619C31.5189 22.4018 27.7551 18.5518 23.9878 14.7119C23.8963 14.6108 23.815 14.4997 23.693 14.3481C24.3086 13.9979 25.0231 13.8594 25.7258 13.954C26.6948 14.0754 27.5921 14.5251 28.2667 15.2272C32.847 19.9429 37.4273 24.6282 42.0077 29.2833C42.3024 29.5864 42.3024 29.8087 42.0077 30.0916L38.5216 33.5273C35.0118 36.9562 31.502 40.3819 27.9922 43.804C27.6454 44.1974 27.2232 44.5179 26.7503 44.7469C26.2773 44.976 25.7631 45.1088 25.2379 45.1378C24.5973 45.111 23.959 45.0436 23.3271 44.9358C23.3222 44.8584 23.3222 44.7808 23.3271 44.7034C23.4491 44.5619 23.5812 44.4103 23.7235 44.279L23.7235 44.279ZM22.9105 44.279C22.8455 44.3405 22.7739 44.3947 22.697 44.4406C22.4429 44.2183 22.1786 44.0061 21.9449 43.7636L8.40709 29.93C8.09199 29.6066 7.99038 29.3741 8.40709 29.0104C9.63688 27.818 10.8464 26.5852 12.0762 25.3828C15.5318 21.974 18.9941 18.5753 22.4633 15.1868C22.6767 14.9746 22.9308 14.7826 23.0629 14.6714C24.1504 15.6819 25.1972 16.6015 26.1831 17.5817C29.1712 20.5997 32.1491 23.6311 35.1168 26.6761C35.5106 27.0393 35.8246 27.4795 36.0394 27.9689C36.2542 28.4584 36.3651 28.9867 36.3651 29.5207C36.3651 30.0547 36.2542 30.583 36.0394 31.0725C35.8246 31.5619 35.5106 32.002 35.1168 32.3652C31.0514 36.3869 26.9758 40.338 22.9105 44.3092L22.9105 44.279ZM21.142 12.5696C21.6908 13.1355 22.2701 13.6711 22.8393 14.2168L7.71598 28.9699C7.3152 28.3179 7.12566 27.5592 7.17293 26.7965C7.2202 26.0338 7.50197 25.3039 7.98024 24.7057C8.56975 24.0488 9.18968 23.4426 9.81981 22.8262C13.2856 19.4107 16.7717 16.0155 20.2273 12.6C20.5728 12.2261 20.8066 12.1857 21.142 12.5696ZM15.6334 46.3605C13.8039 44.5416 12.005 42.6924 10.206 40.8533L1.90247 32.3753C1.4579 31.9959 1.10108 31.5253 0.856468 30.996C0.611842 30.4666 0.485197 29.8909 0.485197 29.3084C0.485197 28.7259 0.611842 28.1503 0.856468 27.621C1.10108 27.0916 1.4579 26.6211 1.90247 26.2416C6.42862 21.782 10.948 17.3258 15.4606 12.8728C16.0003 12.2901 16.7003 11.878 17.4737 11.6876C18.2471 11.4971 19.0597 11.5368 19.8105 11.8017C19.9025 11.8373 19.991 11.8813 20.0748 11.933L20.2273 12.115C20.0345 12.1951 19.8533 12.3004 19.6886 12.4282C15.8366 16.1973 12.005 19.9766 8.15297 23.7356C7.4562 24.3341 6.96225 25.1318 6.73851 26.0197C6.51477 26.9077 6.57219 27.8427 6.9029 28.6971C7.12298 29.353 7.12298 30.0622 6.9029 30.7181C6.69927 31.4864 6.7089 32.2953 6.93081 33.0586C7.15273 33.822 7.57867 34.5112 8.16318 35.0531C11.8424 38.7616 15.5013 42.5005 19.1703 46.2292C19.3837 46.4415 19.587 46.6637 19.8004 46.886C19.1326 47.2305 18.3742 47.362 17.6286 47.2625C16.8829 47.1631 16.1862 46.8376 15.6334 46.3302L15.6334 46.3605ZM20.583 46.5626C19.5666 45.633 18.6011 44.8145 17.7067 43.905C14.6441 40.813 11.5951 37.7074 8.55954 34.5883C7.99567 34.05 7.59989 33.3613 7.41963 32.605C7.23937 31.8486 7.28232 31.0567 7.54318 30.324C7.54318 30.324 7.54318 30.233 7.61437 30.1926L7.73633 30.1219L22.3311 44.9054C21.6908 45.4915 21.0709 46.0776 20.583 46.5323L20.583 46.5626ZM41.8552 34.9116C37.2003 39.4521 32.5488 43.9892 27.9007 48.523C27.173 49.2476 26.1924 49.6656 25.1628 49.6901C24.1331 49.7146 23.1335 49.3435 22.3718 48.6543C21.8331 48.1794 21.3554 47.6439 20.9793 47.3205C21.579 46.6233 22.077 46.0069 22.6157 45.4309C22.687 45.3727 22.7711 45.3322 22.8613 45.3129C22.9515 45.2935 23.045 45.2959 23.1341 45.3197C24.0037 45.6897 24.9667 45.7843 25.8923 45.5909C26.8179 45.3974 27.6611 44.9252 28.3073 44.2384L41.906 30.9L42.5972 30.1926C42.9866 30.8143 43.1648 31.5442 43.1053 32.2742C43.0468 33.2722 42.5982 34.2078 41.8552 34.8813L41.8552 34.9116Z" fill="#4eadea" fill-rule="nonzero" opacity="1" stroke="none" vectornator:layerName="path"/>
<g fill="#4eadea" opacity="1" stroke="none">
<path d="M55.7861 26.0063C54.4971 27.186 52.8486 27.7758 50.8408 27.7758C48.3564 27.7758 46.4033 26.979 44.9814 25.3852C43.5596 23.7836 42.8486 21.5883 42.8486 18.7993C42.8486 15.7836 43.6572 13.4594 45.2744 11.8266C46.6807 10.4047 48.4697 9.6938 50.6416 9.6938C53.5478 9.6938 55.6728 10.6469 57.0166 12.5532C57.7588 13.6235 58.1572 14.6977 58.2119 15.7758L54.6025 15.7758C54.3682 14.9477 54.0674 14.3227 53.7002 13.9008C53.0439 13.1508 52.0713 12.7758 50.7822 12.7758C49.4697 12.7758 48.4346 13.3051 47.6767 14.3637C46.9189 15.4223 46.54 16.9204 46.54 18.8579C46.54 20.7954 46.9404 22.2465 47.7412 23.2114C48.542 24.1762 49.5596 24.6586 50.7939 24.6586C52.0596 24.6586 53.0244 24.2446 53.6885 23.4165C54.0557 22.9711 54.3603 22.3032 54.6025 21.4125L58.1767 21.4125C57.8642 23.2954 57.0674 24.8266 55.7861 26.0063Z"/>
<path d="M68.5713 27.7758C66.1025 27.7758 64.2158 27.104 62.9111 25.7602C61.1611 24.1118 60.2861 21.7368 60.2861 18.6352C60.2861 15.4711 61.1611 13.0961 62.9111 11.5102C64.2158 10.1665 66.1025 9.49458 68.5713 9.49458C71.04 9.49458 72.9267 10.1665 74.2314 11.5102C75.9736 13.0961 76.8447 15.4711 76.8447 18.6352C76.8447 21.7368 75.9736 24.1118 74.2314 25.7602C72.9267 27.104 71.04 27.7758 68.5713 27.7758ZM71.9814 23.1352C72.8174 22.0805 73.2353 20.5805 73.2353 18.6352C73.2353 16.6977 72.8154 15.1997 71.9756 14.1411C71.1357 13.0825 70.001 12.5532 68.5713 12.5532C67.1416 12.5532 66.001 13.0805 65.1494 14.1352C64.2978 15.1899 63.8721 16.6899 63.8721 18.6352C63.8721 20.5805 64.2978 22.0805 65.1494 23.1352C66.001 24.1899 67.1416 24.7172 68.5713 24.7172C70.001 24.7172 71.1377 24.1899 71.9814 23.1352Z"/>
<path d="M82.9033 27.2954L79.54 27.2954L79.54 10.0219L84.79 10.0219L87.9307 23.604L91.0478 10.0219L96.2392 10.0219L96.2392 27.2954L92.876 27.2954L92.876 15.6118C92.876 15.2758 92.8799 14.8051 92.8877 14.1997C92.8955 13.5942 92.8994 13.1274 92.8994 12.7993L89.6299 27.2954L86.126 27.2954L82.8799 12.7993C82.8799 13.1274 82.8838 13.5942 82.8916 14.1997C82.8994 14.8051 82.9033 15.2758 82.9033 15.6118L82.9033 27.2954Z"/>
<path d="M106.927 21.0844L103.259 21.0844L103.259 27.2954L99.6728 27.2954L99.6728 10.0219L107.196 10.0219C108.931 10.0219 110.313 10.4672 111.345 11.3579C112.376 12.2485 112.892 13.6274 112.892 15.4946C112.892 17.5336 112.376 18.975 111.345 19.8188C110.313 20.6625 108.841 21.0844 106.927 21.0844ZM108.614 17.4868C109.083 17.0727 109.317 16.4165 109.317 15.518C109.317 14.6196 109.081 13.979 108.608 13.5961C108.136 13.2133 107.474 13.0219 106.622 13.0219L103.259 13.0219L103.259 18.1079L106.622 18.1079C107.474 18.1079 108.138 17.9008 108.614 17.4868Z"/>
<path d="M123.942 23.7446L117.579 23.7446L116.384 27.2954L112.61 27.2954L118.774 10.0219L122.853 10.0219L128.97 27.2954L125.056 27.2954L123.942 23.7446ZM122.935 20.768L120.778 13.9711L118.552 20.768L122.935 20.768Z"/>
<path d="M143.349 26.0063C142.06 27.186 140.411 27.7758 138.403 27.7758C135.919 27.7758 133.966 26.979 132.544 25.3852C131.122 23.7836 130.411 21.5883 130.411 18.7993C130.411 15.7836 131.22 13.4594 132.837 11.8266C134.243 10.4047 136.032 9.6938 138.204 9.6938C141.11 9.6938 143.235 10.6469 144.579 12.5532C145.321 13.6235 145.72 14.6977 145.774 15.7758L142.165 15.7758C141.931 14.9477 141.63 14.3227 141.263 13.9008C140.606 13.1508 139.634 12.7758 138.345 12.7758C137.032 12.7758 135.997 13.3051 135.239 14.3637C134.481 15.4223 134.103 16.9204 134.103 18.8579C134.103 20.7954 134.503 22.2465 135.304 23.2114C136.104 24.1762 137.122 24.6586 138.356 24.6586C139.622 24.6586 140.587 24.2446 141.251 23.4165C141.618 22.9711 141.923 22.3032 142.165 21.4125L145.739 21.4125C145.427 23.2954 144.63 24.8266 143.349 26.0063Z"/>
<path d="M161.044 10.0219L161.044 13.0805L155.876 13.0805L155.876 27.2954L152.243 27.2954L152.243 13.0805L147.052 13.0805L147.052 10.0219L161.044 10.0219Z"/>
</g>
</g>
</svg>
